<svg width="126" height="43" viewBox="0 0 126 43" fill="none" xmlns="http://www.w3.org/2000/svg">
<path d="M10.0339 42.2819C9.69266 41.5055 9.35782 40.6821 9.05131 39.8325C8.03776 37.0309 5.58311 35.2198 2.79619 35.2198C2.23211 35.2198 1.70666 34.9808 1.31387 34.5457C0.922358 34.1105 0.716302 33.5386 0.73562 32.9349L1.30872 14.6014C1.47356 9.33657 5.4466 5.04296 10.3533 4.82883L115.231 0.249255C115.365 0.243729 115.498 0.240967 115.63 0.240967C118.479 0.240967 121.145 1.60724 122.945 3.99166C124.743 6.37193 125.436 9.45814 124.844 12.4573L121.934 27.1976C121.016 31.8463 117.136 35.2212 112.706 35.2212H22.6743C17.6387 35.2212 12.9561 37.7935 10.1511 42.1037C10.1099 42.1617 10.0713 42.2211 10.0339 42.2819Z" fill="url(#paint0_linear_660_3784)"/>
<defs>
<linearGradient id="paint0_linear_660_3784" x1="0.734306" y1="21.2606" x2="125.05" y2="21.2606" gradientUnits="userSpaceOnUse">
<stop stop-color="#DAE3FE"/>
<stop offset="1" stop-color="#E9EFFD"/>
</linearGradient>
</defs>
</svg>
