<svg width="113" height="34" viewBox="0 0 113 34" fill="none" xmlns="http://www.w3.org/2000/svg">
<path d="M8.76578 33.0138C8.43426 32.2125 8.13636 31.4283 7.88019 30.6783C6.96795 28.0054 4.75864 26.2775 2.25027 26.2775C1.74257 26.2775 1.26964 26.0495 0.916103 25.6343C0.563726 25.2191 0.378265 24.6735 0.395652 24.0975L0.652977 14.6817C0.801346 9.66541 4.37612 5.57038 8.7936 5.36609L103.189 0.996921C103.31 0.991649 103.429 0.989014 103.548 0.989014C106.112 0.989014 108.512 2.29251 110.132 4.56738C111.75 6.8383 112.374 9.78272 111.841 12.6441L111.832 12.6929L110.838 19.1972C109.994 23.573 105.174 26.2788 101.173 26.2788H20.1404C15.6082 26.2788 11.3935 28.733 8.86894 32.8451C8.83417 32.9005 8.79939 32.9571 8.76578 33.0138Z" fill="url(#paint0_linear_660_3809)"/>
<defs>
<linearGradient id="paint0_linear_660_3809" x1="0.395211" y1="17.0008" x2="112.027" y2="17.0008" gradientUnits="userSpaceOnUse">
<stop stop-color="#DAE3FE"/>
<stop offset="1" stop-color="#E9EFFD"/>
</linearGradient>
</defs>
</svg>
