<svg width="424" height="411" viewBox="0 0 424 411" fill="none" xmlns="http://www.w3.org/2000/svg">
<path d="M54.8192 250.924L43.67 410.22H49.2446L66.8947 252.648L54.8192 250.924Z" fill="#5E5DBA"/>
<path d="M171.894 250.924L183.039 410.22H177.465L159.819 252.648L171.894 250.924Z" fill="#5E5DBA"/>
<path d="M6.1731 78.5891C6.1731 78.5891 95.2718 75.9484 101.04 76.362C106.809 76.7755 112.138 95.3117 112.138 95.3117C112.138 95.3117 138.163 191.865 137.646 194.523C137.129 197.181 161.926 259.398 161.926 259.398C161.926 259.398 140.532 258.829 139.589 259.398C138.641 259.966 56.8571 252.38 55.7241 251.622C54.5868 250.864 50.4251 236.636 50.2356 235.877C50.046 235.119 43.7994 179.726 43.7994 179.726L40.5814 149.184C40.5814 149.184 28.2777 122.98 28.0881 122.898C27.8986 122.817 16.5383 99.865 15.7843 98.7234C15.0261 97.5862 3.29109 84.8741 2.91199 83.7368C2.52858 82.5996 6.1731 78.5891 6.1731 78.5891Z" fill="#57ACE5"/>
<path opacity="0.3" d="M6.1731 78.589C6.1731 78.589 36.8894 77.6801 63.4226 77.0124C53.1135 83.0777 47.3277 100.05 51.6229 130.235C55.2675 155.887 59.3214 183.728 75.4765 217.113C83.7953 234.309 119.621 224.677 148.984 226.379C155.309 242.796 161.926 259.398 161.926 259.398C161.926 259.398 140.532 258.829 139.589 259.398C138.641 259.966 56.8571 252.38 55.7241 251.622C54.5868 250.864 50.4251 236.636 50.2356 235.877C50.046 235.119 43.7994 179.726 43.7994 179.726L40.5814 149.184C40.5814 149.184 28.2777 122.98 28.0881 122.898C27.8986 122.817 16.5383 99.865 15.7843 98.7234C15.0261 97.5862 3.29109 84.874 2.91199 83.7368C2.52858 82.5995 6.1731 78.589 6.1731 78.589Z" fill="#57ACE5"/>
<path d="M178.206 262.797C178.395 259.747 176.099 257.119 173.062 256.912C163.541 256.266 142.949 254.793 121.775 252.785C81.1803 248.934 66.5028 245.781 61.2513 244.135C59.4377 243.567 58.0462 242.094 57.5809 240.25C56.1549 234.577 55.3191 222.799 54.6212 212.947C51.9718 175.565 47.5992 113.921 9.18457 80.0752C6.78931 77.9644 3.09715 78.3392 1.14992 80.8764C-0.620682 83.1854 -0.319046 86.4851 1.86513 88.4021C36.8592 119.129 40.8785 175.789 43.5668 213.736C45.1004 235.369 46.0482 245.988 50.7741 250.924C53.053 253.307 57.2922 257.739 119.013 263.671C140.911 265.773 162.464 267.32 172.308 267.987C175.375 268.194 178.016 265.864 178.206 262.797Z" fill="#026EAF"/>
<path d="M171.544 35.8719C167.059 18.3868 159.917 11.4514 147.505 4.92518C137.997 -0.0761015 126.766 -1.68291 115.242 2.04759C91.7463 9.65936 85.685 35.411 83.3112 48.7219C75.2207 94.1125 37.2583 132.723 51.0699 163.786C64.8857 194.849 129.73 191.519 129.73 191.519L159.473 170.088C159.473 170.088 162.114 117.908 162.122 113.648C162.131 109.388 173.392 109.694 173.392 88.366C173.392 71.3633 176.821 56.4371 171.544 35.8719Z" fill="#333333"/>
<path d="M250.303 100.066C250.347 100.591 250.954 100.867 251.372 100.54C254.594 98.0197 264.779 90.1624 265.606 90.8387C266.588 91.6443 257.657 98.8856 258.049 99.997C258.441 101.108 266.976 93.824 267.885 94.8493C268.798 95.8788 260.794 102.259 261.026 102.827C261.259 103.396 269.582 98.1016 270.478 98.3859C271.374 98.6702 263.18 105.403 263.266 106.17C263.353 106.941 270.551 104.176 270.862 104.77C271.172 105.364 271.473 105.705 257.046 116.577L251.182 120.614L244.621 121.32L240.899 114.299C240.899 114.299 247.331 91.9286 248.244 91.6399C249.119 91.3643 249.644 91.9544 250.303 100.066Z" fill="#FFC0BB"/>
<path d="M152.119 89.821C152.119 89.821 202.394 146.847 204.513 147.097C206.633 147.347 240.33 107.883 240.33 107.883C240.33 107.883 252.406 117.933 254.504 121.418C254.504 121.418 218.506 181.421 209.261 184.824C200.016 188.227 138.622 130.305 138.622 130.305L152.119 89.821Z" fill="#F0A914"/>
<path d="M157.982 163.243L157.379 163.553C157.379 163.553 157.323 163.083 157.224 162.26C157.478 162.596 157.733 162.924 157.982 163.243Z" fill="#F4A640"/>
<path d="M111.396 90.3702C113.959 92.929 115.721 96.177 116.695 99.6663C120.119 111.935 131.54 151.755 136.356 154.469C142.052 157.679 214.086 173.109 221.203 172.48C228.324 171.855 235.023 178.959 236.449 184.43H210.041H208.21H115.712C115.712 184.43 91.5572 154.676 88.8603 123.363C86.4565 95.4749 99.4667 78.4722 111.396 90.3702Z" fill="#FFC0BB"/>
<path d="M120.64 67.1262V87.2563C120.64 88.3763 121.278 89.3929 122.29 89.8667C125.362 91.3098 132.229 93.6705 138.639 89.9055C139.505 89.3972 140.014 88.4452 140.014 87.4372V69.2542L120.64 67.1262Z" fill="#FFC0BB"/>
<path d="M120.641 77.9045V67.1223L140.018 69.2546V78.3999C136.382 79.5069 129.614 80.6054 120.641 77.9045Z" fill="#F99893"/>
<path d="M152.748 63.6812C153.429 62.2898 153.98 60.8251 154.403 59.3002C155.613 55.2035 156.07 50.913 156.173 47.1911C156.195 46.3942 156.264 45.5972 156.346 44.8046C156.682 41.5954 156.44 38.2353 155.458 34.8279C152.305 23.869 142.146 16.1538 130.764 16.0935C115.432 16.0117 103.65 28.9479 104.675 43.8656C102.995 43.0773 101.16 42.9911 99.6131 43.8182C96.6363 45.4034 95.8263 49.7112 97.808 53.4417C99.7854 57.1679 103.805 58.9039 106.782 57.3186C107.195 57.0989 107.561 56.8232 107.889 56.5045C110.051 69.1089 121.106 78.1896 133.539 77.1256C139.622 76.6044 144.964 73.744 148.837 69.4664C149.099 69.2166 149.371 68.9237 149.655 68.5834C150.904 67.1015 151.917 65.4387 152.748 63.6812Z" fill="#FFC0BB"/>
<path d="M129.351 47.709C129.45 48.8592 128.597 49.8672 127.452 49.9662C126.306 50.0653 125.298 49.2124 125.198 48.0623C125.099 46.9121 125.952 45.9041 127.098 45.805C128.244 45.7059 129.252 46.5588 129.351 47.709Z" fill="#333333"/>
<path d="M147.277 47.3516C147.376 48.5017 146.523 49.5097 145.377 49.6088C144.231 49.7079 143.223 48.8549 143.124 47.7048C143.025 46.5547 143.878 45.5467 145.024 45.4476C146.17 45.3528 147.178 46.2015 147.277 47.3516Z" fill="#333333"/>
<path d="M131.501 43.3668C130.45 43.0351 129.451 42.7809 128.455 42.6387C127.465 42.4923 126.491 42.4751 125.539 42.6086C124.595 42.7508 123.652 42.9748 122.751 43.4142L122.402 43.5563C122.286 43.608 122.183 43.6812 122.066 43.7329L121.381 44.0904C120.92 44.3403 120.498 44.6504 119.986 44.9003C120.248 44.4221 120.554 43.9483 120.908 43.5175C121.304 43.1342 121.666 42.6775 122.153 42.3803C123.057 41.6781 124.195 41.2646 125.345 41.1009C126.504 40.9415 127.693 41.088 128.757 41.4843C129.817 41.8935 130.795 42.5052 131.501 43.3668Z" fill="#333333"/>
<path d="M139.893 43.078C140.539 42.1691 141.474 41.4928 142.504 41.0104C143.538 40.5409 144.714 40.3125 145.881 40.3901C147.04 40.4762 148.203 40.8079 149.151 41.4455C149.659 41.7082 150.051 42.139 150.474 42.4965C150.857 42.9057 151.193 43.3538 151.486 43.8147C150.96 43.6036 150.512 43.3193 150.039 43.1039L149.328 42.7938C149.207 42.7464 149.099 42.6817 148.983 42.6386L148.626 42.5224C147.699 42.1476 146.739 41.9882 145.791 41.9107C144.834 41.8461 143.865 41.9279 142.887 42.1433C141.901 42.3544 140.918 42.6774 139.893 43.078Z" fill="#333333"/>
<path d="M135.973 45.2234C136.826 46.2572 137.584 47.3601 138.29 48.4973C138.997 49.6346 139.639 50.8106 140.186 52.0555C140.445 52.6844 140.69 53.322 140.832 54.0241C140.863 54.2051 140.884 54.386 140.888 54.5842C140.893 54.6832 140.88 54.7909 140.871 54.89C140.845 55.002 140.832 55.114 140.768 55.2346C140.738 55.2949 140.703 55.3552 140.664 55.4112L140.574 55.5146C140.513 55.5835 140.453 55.6525 140.389 55.7171C140.255 55.8377 140.13 55.9626 139.992 56.066C139.454 56.5097 138.864 56.85 138.265 57.1602C137.662 57.4574 137.045 57.7288 136.404 57.9312C137.519 57.1989 138.644 56.4709 139.566 55.5878C139.682 55.4801 139.781 55.3595 139.885 55.2475L140.027 55.0709L140.096 54.9847C140.1 54.9675 140.104 54.9546 140.113 54.9417C140.173 54.8038 140.139 54.4678 140.07 54.1878C139.928 53.5934 139.691 52.9816 139.432 52.3872C138.92 51.1853 138.321 50.005 137.735 48.8204C137.14 47.6272 136.537 46.4382 135.973 45.2234Z" fill="#F99893"/>
<path d="M186.359 357.174L185.166 387.014L199.499 387.113L200.869 358.932L186.359 357.174Z" fill="#FFC0BB"/>
<path d="M222.917 404.148L181.715 404.428C180.815 404.432 180.091 403.725 180.1 402.842L180.108 401.653C180.117 400.77 180.854 400.051 181.754 400.047L222.956 399.767C223.857 399.762 224.58 400.469 224.572 401.352L224.559 402.541C224.554 403.424 223.818 404.143 222.917 404.148Z" fill="white"/>
<path d="M182.275 386.727L180.694 398.926C180.501 400.43 181.345 401.791 182.474 401.782L221.655 401.52C222.672 401.511 223.684 400.882 224.227 399.71C224.787 398.509 224.912 396.699 223.18 394.283C219.717 389.449 208.201 388.342 202.601 384.233L184.348 384.358C183.331 384.362 182.452 385.366 182.275 386.727Z" fill="#09083C"/>
<path d="M199.766 391.332C199.486 391.164 199.387 390.699 199.551 390.341C200.335 388.665 202.773 384.582 207.663 385.387C207.943 385.435 208.132 385.801 208.081 386.18V386.193C208.029 386.559 207.775 386.804 207.499 386.757C203.122 386.055 201.046 389.652 200.408 391.056C200.275 391.349 200.003 391.47 199.766 391.332Z" fill="white"/>
<path d="M203.824 392.87C203.544 392.702 203.445 392.237 203.609 391.879C204.393 390.203 206.831 386.124 211.717 386.925C212.001 386.973 212.186 387.339 212.135 387.718V387.731C212.083 388.097 211.829 388.342 211.553 388.295C207.176 387.593 205.099 391.19 204.462 392.594C204.333 392.891 204.057 393.012 203.824 392.87Z" fill="white"/>
<path d="M207.594 394.309C207.314 394.141 207.215 393.675 207.379 393.318C208.163 391.642 210.601 387.563 215.486 388.364C215.771 388.411 215.956 388.777 215.904 389.157V389.169C215.852 389.536 215.598 389.781 215.322 389.734C210.946 389.032 208.869 392.629 208.232 394.033C208.102 394.33 207.831 394.451 207.594 394.309Z" fill="white"/>
<path opacity="0.3" d="M192.934 401.709C189.935 391.883 184.623 390.832 181.715 391.078L180.699 398.922C180.505 400.426 181.349 401.787 182.478 401.778L192.934 401.709Z" fill="#E87B50"/>
<path d="M253.815 357.172L252.621 385.719L266.954 385.818L268.324 358.929L253.815 357.172Z" fill="#FFC0BB"/>
<path d="M290.373 404.153L249.171 404.433C248.27 404.438 247.546 403.731 247.555 402.848L247.564 401.659C247.572 400.776 248.309 400.057 249.209 400.052L290.412 399.772C291.312 399.768 292.036 400.474 292.027 401.357L292.018 402.546C292.01 403.429 291.273 404.149 290.373 404.153Z" fill="white"/>
<path d="M249.731 386.733L248.15 398.932C247.956 400.435 248.8 401.797 249.929 401.788L289.11 401.525C290.127 401.517 291.139 400.888 291.687 399.716C292.247 398.514 292.372 396.705 290.64 394.288C287.176 389.455 275.661 388.348 270.056 384.238L251.803 384.363C250.786 384.368 249.907 385.371 249.731 386.733Z" fill="#09083C"/>
<path d="M267.221 391.338C266.941 391.17 266.842 390.704 267.006 390.347C267.79 388.671 270.228 384.587 275.114 385.393C275.398 385.44 275.583 385.806 275.532 386.185V386.198C275.48 386.565 275.226 386.81 274.954 386.763C270.577 386.061 268.501 389.657 267.863 391.062C267.734 391.355 267.458 391.475 267.221 391.338Z" fill="white"/>
<path d="M271.28 392.875C271 392.707 270.9 392.242 271.064 391.885C271.848 390.209 274.286 386.13 279.172 386.931C279.456 386.978 279.641 387.344 279.59 387.723V387.736C279.538 388.103 279.284 388.348 279.008 388.301C274.631 387.599 272.555 391.195 271.917 392.6C271.788 392.897 271.512 393.018 271.28 392.875Z" fill="white"/>
<path d="M275.049 394.314C274.769 394.146 274.67 393.681 274.834 393.323C275.618 391.648 278.056 387.568 282.946 388.37C283.226 388.417 283.415 388.783 283.364 389.162V389.175C283.312 389.541 283.058 389.787 282.782 389.739C278.405 389.037 276.329 392.634 275.691 394.039C275.558 394.336 275.286 394.456 275.049 394.314Z" fill="white"/>
<path opacity="0.3" d="M260.389 401.715C257.39 391.889 252.079 390.838 249.171 391.083L248.154 398.928C247.96 400.431 248.804 401.793 249.933 401.784L260.389 401.715Z" fill="#E87B50"/>
<path d="M194.527 201.389C194.527 201.389 265.838 201.648 276.841 215.984C287.844 230.32 296.21 327.132 276.841 369.477C276.841 369.477 251.751 370.36 246.03 366.832C246.03 366.832 247.792 295.38 246.909 276.413C246.026 257.446 232.822 254.801 231.064 253.035C229.298 251.264 194.527 201.389 194.527 201.389Z" fill="#09083C"/>
<path d="M186.467 305.275C187.109 299.313 187.945 291.572 188.849 282.806C190.465 265.592 192.498 255.28 190.34 255.486C173.16 257.149 126.435 248.805 98.8333 243.412C82.0406 240.129 72.4294 221.808 79.8952 206.382C80.83 204.448 81.963 202.742 83.3158 201.39C96.201 188.518 122.807 192.649 122.777 190.849C273.33 203.414 240.158 229.261 226.036 318.5C225.959 318.883 225.877 319.267 225.799 319.646C219.673 349.154 213.896 373.445 213.896 373.445C213.896 373.445 191.887 374.328 179.122 371.239C179.105 371.377 183.085 336.523 186.467 305.275Z" fill="#09083C"/>
<path d="M93.5988 86.8214C98.5057 82.182 110.133 81.1266 120.882 81.2731C120.731 81.3377 120.64 81.3764 120.64 81.3764C130.07 91.8744 140.018 82.6084 140.018 82.6084C141.939 82.8411 143.068 83.0048 143.068 83.0048C143.068 83.0048 150.206 86.3949 157.913 95.9667C158.021 96.1003 166.297 104.948 167.111 115.459C167.692 122.95 158.081 133.888 158.081 138.17C158.081 142.452 162.51 173.476 162.51 173.476L160.838 173.269C160.838 173.36 160.843 173.437 160.838 173.476C160.825 173.868 164.263 174.411 168.64 174.949C168.834 180.493 168.933 183.944 168.933 183.944V194.765C111.641 204.276 77.3318 220.327 77.3318 220.327C74.4928 108.606 92.8363 87.5451 93.5988 86.8214Z" fill="#FDB827"/>
<path d="M111.395 90.3667C113.959 92.9255 115.721 96.1735 116.694 99.6628C120.119 111.931 131.54 151.752 136.356 154.466C140.884 157.016 187.346 167.294 209.778 171.085C209.778 171.085 208.137 177.775 206.659 184.43H115.708C115.708 184.43 91.5526 154.677 88.8557 123.364C86.4561 95.4713 99.4664 78.4687 111.395 90.3667Z" fill="#F0A914"/>
<path d="M389.953 99.0255H281.541L250.803 174.208H198.581C197.121 174.208 195.936 175.393 195.936 176.858C195.936 178.322 197.121 179.507 198.581 179.507H353.925L389.953 99.0255Z" fill="#5E5DBA"/>
<path d="M336.197 141.927C335.555 145.132 332.772 147.273 329.972 146.713C327.171 146.153 325.422 143.099 326.064 139.894C326.706 136.689 329.493 134.548 332.289 135.108C335.085 135.672 336.835 138.726 336.197 141.927Z" fill="#DAEEF7"/>
<path d="M147.553 13.931C147.553 13.931 118.435 40.807 104.675 43.8655C104.675 43.8655 102.844 23.0246 103.021 22.3138C103.197 21.5987 120.464 5.19487 121.532 5.37149C122.601 5.5481 153.924 10.0066 153.924 10.0066L162.51 31.2308L147.553 13.931Z" fill="#333333"/>
<path d="M164.07 19.6364L156.475 41.1751C156.475 41.1751 141.164 30.3368 135.262 19.6364C129.364 8.93598 150.542 12.8603 150.542 12.8603L164.07 19.6364Z" fill="#333333"/>
<path opacity="0.3" d="M129.631 61.5935C129.631 61.5935 132.518 60.7837 135.042 62.7092C135.042 62.7092 138.032 61.1153 140.169 62.9892C140.169 62.9892 138.82 67.185 134.138 66.5646C129.45 65.9443 129.631 61.5935 129.631 61.5935Z" fill="#F99893"/>
<path d="M127.275 59.8878C127.779 60.3574 128.3 60.7924 128.86 61.1844C129.412 61.5851 129.985 61.9469 130.583 62.2614C131.777 62.8903 133.048 63.3642 134.37 63.5709C135.688 63.782 137.041 63.7131 138.351 63.4115C139.656 63.0928 140.91 62.537 142.103 61.8564C141.564 62.2829 140.987 62.6663 140.38 62.998C139.772 63.3297 139.117 63.5795 138.454 63.7992C137.786 63.9974 137.093 64.1266 136.391 64.1783C135.688 64.2214 134.982 64.1869 134.288 64.0835C132.901 63.8552 131.57 63.3426 130.385 62.6103C129.205 61.878 128.124 60.9734 127.275 59.8878Z" fill="#F99893"/>
<path d="M394.709 190.232H402.532V404.46H394.709V190.232Z" fill="#5E5DBA"/>
<path d="M320.878 190.233H328.701V404.461H320.878V190.233Z" fill="#5E5DBA"/>
<path d="M97.5626 190.237H105.386V404.465H97.5626V190.237Z" fill="#5E5DBA"/>
<path d="M23.7273 190.232H31.5505V404.46H23.7273V190.232Z" fill="#5E5DBA"/>
<path d="M5.14246 192.761H420.036C421.94 192.761 423.482 191.219 423.482 189.314V182.547C423.482 180.643 421.94 179.101 420.036 179.101H5.14246C3.23828 179.101 1.69601 180.643 1.69601 182.547V189.314C1.69601 191.214 3.23828 192.761 5.14246 192.761Z" fill="#FEE4CB"/>
<path opacity="0.5" d="M5.65476 192.761H120.3C122.204 192.761 123.747 191.219 123.747 189.314V182.547C123.747 180.643 122.204 179.101 120.3 179.101H5.65476C3.75061 179.101 2.20833 180.643 2.20833 182.547V189.314C2.20833 191.214 3.75061 192.761 5.65476 192.761Z" fill="#E0A689"/>
</svg>
