<svg width="182" height="331" viewBox="0 0 182 331" fill="none" xmlns="http://www.w3.org/2000/svg">
<path d="M106.59 317.837C106.223 315.2 107.049 310.668 109.111 303.573C105.025 303.582 101.588 301.773 97.4117 301.837C96.2716 308.509 94.5049 319.463 94.5049 319.463L94.3145 328.122L123.396 328.34C123.396 328.34 123.153 328.465 114.579 323.048C113.95 322.645 106.946 320.385 106.59 317.837Z" fill="#F7A491"/>
<path d="M94.1767 330.344H124.197C125.307 330.245 125.577 329.339 125.193 328.779C124.401 327.631 118.546 324.87 114.61 323.037C107.706 323.763 95.568 320.92 94.4776 319.322C92.5867 324.622 93.5611 330.209 94.1767 330.344Z" fill="black"/>
<path d="M70.3647 317.837C69.9976 315.2 69.3709 311.899 70.2874 303.109C66.2019 303.118 62.3124 302.353 58.1358 302.417C58.1358 309.279 58.2793 319.463 58.2793 319.463L58.0889 328.122L87.1705 328.34C87.1705 328.34 86.9275 328.464 78.3535 323.048C77.7213 322.645 70.718 320.385 70.3647 317.837Z" fill="#F7A491"/>
<path d="M57.9512 330.344H87.9714C89.0811 330.245 89.3516 329.339 88.9679 328.779C88.1756 327.631 82.3206 324.87 78.3842 323.037C71.4803 323.763 59.3425 320.92 58.2521 319.322C56.3584 324.622 57.3328 330.209 57.9512 330.344Z" fill="black"/>
<path d="M91.499 66.7078L102.439 55.1662C102.439 55.1662 114.149 61.6064 127.797 67.7595C131.548 61.2282 137.674 39.7462 138.002 38.7193C138.333 37.6924 130.828 24.7872 132.506 24.4614C134.184 24.1385 136.362 31.3544 138.137 30.6228C139.912 29.8913 144.473 13.1518 145.541 14.0655C147.539 15.7742 143.142 24.478 144.194 25.1102C145.245 25.7423 147.918 15.465 149.952 15.9012C151.987 16.3401 146.518 25.2592 147.117 26.1177C147.716 26.9762 153.433 18.6065 154.615 20.5443C155.255 21.5961 149.342 27.832 150.559 28.5276C151.777 29.226 157.105 25.2979 157.742 26.5704C158.377 27.843 152.771 29.1681 151.214 32.3868C149.657 35.6055 146.824 36.8587 145.886 42.9456C144.947 49.0269 142.377 81.5619 135.747 84.1733C129.952 86.459 91.499 66.7078 91.499 66.7078Z" fill="#F7A491"/>
<path d="M98.5657 128.954L89.6936 133.901L71.6621 161.472L103.91 237.374C103.91 237.374 100.277 248.789 99.0957 254.492C97.8563 260.457 94.8225 311.67 94.8225 311.67L108.581 311.902C108.581 311.902 121.649 257.385 123.86 239.69C126.546 218.203 110.185 167.029 110.185 167.029C107.134 156.589 100.556 135.11 100.556 135.11C100.556 135.11 98.9439 129.87 98.5657 128.954Z" fill="#454545"/>
<path d="M67.6898 118.599C67.6898 118.599 68.6063 125.084 64.9376 132.482C62.7016 136.992 58.837 140.528 56.071 146.052C50.8371 156.506 47.9938 171.357 49.9565 180.903C49.9565 180.903 60.7803 222.236 60.3497 237.341C60.1923 242.912 58.2793 252.949 57.0564 259.731C55.9743 265.73 56.3553 310.226 56.3553 310.226L70.972 310.508L82.7371 237.523L87.7115 172.649L98.563 128.954L67.6898 118.599Z" fill="#4F4F4F"/>
<path d="M101.843 22.1786C100.424 15.4789 98.9608 8.75441 92.3025 3.92909C86.9141 0.0230202 81.1254 -1.09221 74.9888 1.13273C57.6006 7.44042 66.9531 21.24 45.3717 35.9478C38.6665 40.5192 36.1213 42.112 31.3098 48.2016C24.5743 56.7259 20.8918 68.1654 24.2789 77.5813C31.2822 97.0565 52.9768 102.682 64.3279 98.5527C85.4538 90.8675 103.055 64.0743 104.222 56.7646C105.473 48.9442 102.756 26.4932 101.843 22.1786Z" fill="#13375B"/>
<path d="M103.455 73.9569C108.349 76.2205 117.216 79.6158 117.216 79.6158L122.259 63.6631C93.7487 47.4453 95.9847 50.0622 74.5883 50.3796C57.4926 50.6226 50.3292 47.3597 35.6104 87.0967C35.6104 87.0967 46.8151 92.1318 50.8289 93.7467C52.5542 88.8358 55.6735 79.0389 57.4927 84.6234C60.2393 93.0621 62.2517 101.581 63.6016 110.348C64.4573 115.546 66.3234 122.202 65.3434 127.499C65.3434 127.499 76.9844 129.895 85.8786 130.287C85.9035 130.287 85.9283 130.29 85.9559 130.287C90.254 130.177 94.6542 129.799 98.5713 128.954C98.5713 128.954 100.313 92.0905 101.246 90.5529C102.279 88.8497 106.635 83.3452 102.927 75.1163C102.268 73.6615 102.444 73.4903 103.455 73.9569Z" fill="#5E5DBA"/>
<path d="M77.2661 33.974C77.2661 33.974 75.9052 44.969 75.1019 48.784C74.2627 52.7784 72.9984 65.3551 81.2798 67.3979C89.5613 69.4406 87.0023 53.7142 87.1404 49.6535C87.2784 45.5929 89.6248 31.4316 89.6248 31.4316L77.2661 33.974Z" fill="#F7A491"/>
<path d="M76.8164 37.4826C76.902 37.5323 76.9793 37.5875 77.0649 37.6372C81.6417 40.2624 85.6251 39.8483 88.6147 37.8056C89.1474 34.2915 89.6223 31.4316 89.6223 31.4316L77.2664 33.974C77.2664 33.974 77.0842 35.4399 76.8164 37.4826Z" fill="#F47458"/>
<path d="M79.7564 5.34509C79.7564 5.34509 74.9034 6.70878 72.1043 11.5286C69.3052 16.3484 67.9111 30.1894 78.2105 36.094C88.5098 41.9987 95.8223 32.5385 95.5104 23.6857C95.2012 14.8329 92.7334 3.12291 79.7564 5.34509Z" fill="#F7A491"/>
<path d="M97.7872 19.8874C97.9031 22.1897 96.9177 24.1082 95.5899 24.1745C94.2621 24.2407 93.0916 22.4298 92.9757 20.1303C92.8625 17.8281 93.8452 15.9096 95.1758 15.8433C96.5036 15.7743 97.674 17.5852 97.7872 19.8874Z" fill="#F7A491"/>
<path d="M81.2136 4.98083C81.2136 4.98083 75.6595 19.4568 70.2269 20.9999C64.7915 22.543 65.2277 29.6623 65.2277 29.6623C65.2277 29.6623 64.532 13.2043 69.4954 9.16847C74.4587 5.13266 81.2136 4.98083 81.2136 4.98083Z" fill="#13375B"/>
<path d="M72.5567 23.832C73.3959 26.0956 72.8465 28.3923 71.3283 28.9638C69.8128 29.5352 67.9025 28.1632 67.0661 25.9024C66.2269 23.6388 66.779 21.3421 68.2945 20.7707C69.81 20.1965 71.7203 21.5685 72.5567 23.832Z" fill="#F7A491"/>
<path d="M82.0531 137.942C82.2546 137.97 83.1628 137.851 83.9054 137.867C84.9323 137.887 85.8322 138.041 85.8322 138.041C85.8322 138.041 86.2352 137.693 87.0054 137.335C87.3256 137.188 87.8501 137.133 88.2062 136.967C88.5733 136.794 88.8853 136.482 89.2331 136.324C90.1413 135.93 90.9749 135.838 91.251 136.316C91.4801 136.711 86.4257 139.802 86.4257 139.802C81.7494 139.83 76.8496 142.215 66.0092 135.143C59.8175 132.438 29.7559 117.589 29.1486 114.351C28.809 112.535 33.4218 98.4754 37.1926 87.8007C40.0994 89.1036 46.2801 91.853 49.739 93.3023C46.5672 100.024 42.8239 108.94 43.2187 110.031C43.3208 110.315 43.6963 110.829 64.0189 124.137C64.5324 124.468 65.0541 124.816 65.5868 125.164C67.0168 126.099 68.5488 127.099 70.172 128.153L75.969 127.549C75.969 127.549 85.1503 128.181 85.4236 129.227C85.5423 129.705 84.7804 129.942 83.8474 130.08H83.8198C83.6818 130.099 83.5438 130.116 83.4085 130.135C83.4002 130.135 83.3891 130.135 83.3891 130.135C82.3816 130.254 81.316 130.273 81.0593 130.364C80.7667 130.464 80.1787 130.696 79.6736 131.044C85.396 133.382 84.9571 132.548 86.8563 132.429C87.3339 132.393 87.8363 132.531 88.2862 132.493C89.0564 132.429 89.672 131.971 90.2683 131.932C91.1406 131.885 91.8473 132.291 92.0019 132.454C92.2034 132.656 91.8279 132.948 91.0936 133.279C86.6741 135.195 83.0137 134.464 81.8405 134.748C81.051 134.941 82.492 135.234 84.739 134.997C85.2994 134.941 86.0337 135.143 86.7763 134.969C87.2704 134.858 87.7204 134.538 88.2062 134.42C88.6562 134.309 89.1144 134.32 89.4898 134.246C89.984 134.155 90.6741 133.779 91.066 133.732C92.5346 133.567 93.2496 133.823 93.4152 133.961C93.7548 134.265 87.0882 136.824 87.0882 136.824C87.0882 136.824 82.492 137.484 81.4651 137.484C81.4651 137.484 80.8495 137.76 82.0531 137.942Z" fill="#F7A491"/>
<path d="M149.845 163.496C153.055 160.023 159.81 145.563 162.096 141.456C162.046 141.045 161.864 138.651 163.661 135.145C164.931 132.669 165.254 127.607 166.631 128.705C168.009 129.804 166.021 134.221 167.283 133.958C168.544 133.696 173.284 124.763 174.532 125.757C175.78 126.754 170.778 134.875 171.907 134.64C173.036 134.406 176.829 126.472 178.592 127.88C180.356 129.288 173.32 136.771 174.267 137.528C175.214 138.284 179.534 133.442 180.953 134.577C182.372 135.709 174.758 140.887 175.421 140.749C176.083 140.611 180.831 139.38 181.063 140.354C181.325 141.456 169.557 145.961 168.456 148.225C166.369 154.342 162.706 165.483 157.861 171.112C151.937 177.999 134.894 197.096 134.894 197.096L127.813 183.666C127.813 183.666 146.038 167.614 149.845 163.496Z" fill="#966259"/>
<path d="M167.761 136.344C168.202 136.929 168.478 137.608 168.663 138.314C168.663 138.436 169.423 140.686 167.926 142.867C168.36 141.271 168.835 139.499 167.761 136.344Z" fill="#6B4744"/>
<path d="M45.2302 174.126C45.716 174.093 49.3902 180.025 51.6924 189.126C53.9919 198.227 58.8917 215.028 58.8917 215.028C58.8917 215.028 66.8419 231.077 68.9923 233.227C71.1427 235.378 73.2269 233.156 75.3911 233.826C76.0592 234.033 78.124 235.828 78.124 235.828C78.124 235.828 81.8423 243.877 81.293 244.429C80.7437 244.979 74.9936 246.53 70.9937 245.23C66.9937 243.93 48.3936 222.13 48.3936 222.13C48.3936 222.13 33.2304 174.932 45.2302 174.126Z" fill="#F48C7F"/>
<path d="M28.1156 132.1C28.1156 132.1 22.2661 132.031 18.2165 134.317C14.1807 136.594 13.0958 142.024 13.0213 146.272C12.9247 151.755 14.7217 157.276 18.142 161.579C21.565 165.888 27.5911 167.823 27.5911 167.823L44.5487 157.013C44.5487 157.013 46.5666 151.978 45.1394 145.229C43.715 138.474 44.0905 131.048 28.1156 132.1Z" fill="#184655"/>
<path d="M56.6914 306.916C56.6914 306.916 62.2924 314.965 62.6927 316.067C63.0929 317.165 65.8424 324.467 65.8424 324.467L87.3437 314.016L70.894 309.016L67.5953 301.817L56.6914 306.916Z" fill="#F48C7F"/>
<path d="M75 235.919C75 235.919 77.2387 237.368 78.572 237.05C79.9026 236.73 79.2456 236.051 78.6217 235.424C77.9979 234.801 76.3223 234 76.3223 234L75 235.919Z" fill="#F48C7F"/>
<path d="M28.4902 249.928L46.0413 286.529L57.5912 309.629C57.5912 309.629 67.8408 305.679 70.3915 303.128L62.0907 274.027L52.6416 240.327L32.7745 238.522L28.4902 249.928Z" fill="#454545"/>
<path d="M11.9413 310.628C11.9413 310.628 12.7418 316.028 12.7418 316.378C12.7418 316.729 11.541 321.93 11.3422 323.329C11.1435 324.729 11.3422 325.83 11.3422 325.83L31.7173 320.955C31.7173 320.955 28.6918 318.979 25.9921 317.48C23.2923 315.981 22.8921 308.828 22.8921 308.828L11.9413 310.628Z" fill="#F48C7F"/>
<path d="M9.08984 240.327C9.08984 240.327 12.5791 262.281 12.0905 269.627C11.3866 280.175 8.5902 284.227 10.5915 311.887H24.7914C24.7914 311.887 25.7907 297.027 27.9908 285.527C30.1909 274.027 34.9914 254.726 34.9914 254.726L42.8919 236.921L9.08984 240.327Z" fill="#4F4F4F"/>
<path d="M17.3049 157.789C17.9895 159.934 19.7203 161.298 21.1723 160.834C22.6215 160.37 23.2427 158.256 22.5581 156.111C21.8735 153.966 20.1426 152.602 18.6906 153.066C17.2414 153.53 16.6203 155.644 17.3049 157.789Z" fill="#F48C7F"/>
<path d="M41.4203 153.209C41.6108 155.454 42.9966 157.168 44.5121 157.041C46.0276 156.911 47.1041 154.987 46.9137 152.743C46.7232 150.499 45.3374 148.784 43.8219 148.914C42.3037 149.041 41.2299 150.965 41.4203 153.209Z" fill="#F48C7F"/>
<path d="M10.4286 178.109C10.4286 178.109 12.0794 220.675 10.4286 228.626C8.77786 236.576 8.02148 241.735 8.02148 241.735C8.02148 241.735 30.8285 246.177 52.7301 240.327C52.7301 240.327 49.4286 225.476 47.9297 210.026C46.4308 194.575 45.2299 174.126 45.2299 174.126C45.2299 174.126 36.9264 173.507 30.5304 174.092C15.991 175.426 10.4286 178.109 10.4286 178.109Z" fill="#FDB827"/>
<path d="M23.9909 163.299L23.3477 174.946C23.3477 174.946 24.4408 181.375 30.8147 181.75C37.1887 182.126 35.3143 168.4 35.3143 168.4L34.9389 163.299H23.9909Z" fill="#F48C7F"/>
<path d="M35.1103 172.075C35.2649 172.075 35.4168 172.072 35.5686 172.064C35.5327 169.985 35.3174 168.4 35.3174 168.4L34.942 163.299H23.9912L23.8945 165.046C25.2692 167.387 29.3106 172.075 35.1103 172.075Z" fill="#F27A6A"/>
<path d="M11.726 319.042C11.726 319.042 12.4768 318.292 15.1021 318.518C17.7273 318.744 30.8892 320.205 31.4523 320.205C32.0155 320.205 39.5461 325.924 39.8828 326.962C40.2196 328 23.6126 327.321 23.6126 327.321H10.9696C10.9724 327.318 9.77708 323.542 11.726 319.042Z" fill="black"/>
<path d="M63.8913 318.766C63.8913 318.766 63.1211 319.285 63.1211 319.984C63.1211 320.447 63.9051 323.608 64.8105 325.858C65.3405 327.169 66.8947 327.724 68.1341 327.039L90.9412 314.466C90.9412 314.466 92.603 313.025 81.8482 312.345L63.8913 318.766Z" fill="black"/>
<path d="M10.4287 178.109C10.4287 178.109 7.19067 179.525 5.28871 183.925C3.3895 188.326 -2.71115 208.226 1.38815 220.126C1.38815 220.126 3.23491 229.175 12.7365 235.375C22.238 241.575 38.8036 243.066 39.7394 242.127C40.678 241.189 40.7139 239.563 40.7139 238.522C40.7139 237.479 42.8891 236.954 42.8891 235.527C42.8891 234.103 39.2149 233.851 34.9887 233.851C34.9887 233.851 34.2378 233.777 35.1626 233.076C36.0873 232.374 37.2633 231.499 37.0618 230.174C36.863 228.849 35.999 228.913 35.1874 229.724C34.3758 230.536 31.6871 232.725 29.5367 232.098C27.3863 231.475 14.6854 221.048 12.5874 217.747C12.5902 217.752 13.4293 178.818 10.4287 178.109Z" fill="#F48C7F"/>
<path d="M29.7739 138.212C26.1411 138.747 23.4856 141.32 21.556 144.462C17.73 150.686 20.841 159.851 21.89 161.952C22.939 164.053 27.1404 169.452 33.3653 169.452C39.5902 169.452 43.9407 163.752 44.4652 158.203C45.1691 150.772 43.1788 141.511 36.1065 138.93C34.1797 138.223 31.8967 137.897 29.7739 138.212Z" fill="#F48C7F"/>
<path d="M93.1474 306.049C93.1474 306.049 92.0653 315.449 90.3069 319.551C88.5485 323.65 82.7487 326.239 77.6474 327.244C72.546 328.249 74.2465 329.052 74.9945 329.8C75.7426 330.548 97.8485 331.054 101.749 330.347C101.749 330.347 100.25 322.651 100.25 321.45C100.25 320.249 106.351 301.348 106.351 301.348L93.1474 306.049Z" fill="#966259"/>
<path d="M101.747 330.344C101.747 330.344 101.44 328.776 101.106 326.946C96.8412 327.517 87.0857 326.521 82.1969 325.949C80.7007 326.515 78.8816 326.684 77.3854 326.979C72.284 327.984 72.6677 329.323 73.9458 330.253C74.8016 330.877 97.8488 331.051 101.747 330.344Z" fill="#F47458"/>
<path d="M136.641 303.846C136.641 303.846 136.042 315.399 137.282 319.548C138.557 323.824 140.382 324.558 145.392 325.95C150.308 327.316 148.442 329.505 147.694 330.253C146.946 331.001 129.74 331.048 125.84 330.344C125.84 330.344 127.339 322.648 127.339 321.447C127.339 320.246 125.517 300.821 125.517 300.821L136.641 303.846Z" fill="#966259"/>
<path d="M125.84 330.344C125.84 330.344 126.146 328.776 126.48 326.946C130.745 327.517 140.501 326.521 145.39 325.949C147.079 326.361 148.448 326.698 149.939 327.241C154.822 329.025 154.386 329.505 153.638 330.253C152.895 331.001 129.74 331.051 125.84 330.344Z" fill="#F47458"/>
<path d="M104.479 179.995C104.479 179.995 102.795 181.044 101.595 184.147C100.394 187.247 94.1689 212.748 93.269 216.447C92.5733 219.304 86.2601 227.693 83.1269 231.735C82.2022 232.927 81.4928 233.921 81.0428 233.921C78.2934 233.921 73.7275 235.447 73.7275 236.585C73.7275 237.725 74.8041 237.846 76.6067 237.446C78.4065 237.046 77.0429 238.997 76.3942 239.646C75.7455 240.298 72.9767 244.002 73.9566 244.985C74.9366 245.965 77.2941 246.647 78.3955 246.647C78.9918 246.647 80.2064 246.58 82.4203 244.772C84.2836 243.251 87.0275 240.14 89.0371 238.346C96.2696 231.895 102.221 218.346 103.32 215.246C104.418 212.146 104.479 179.995 104.479 179.995Z" fill="#966259"/>
<path d="M87.6514 306.982C87.6514 306.982 99.3503 310.132 112.625 310.132C125.901 310.132 151.998 303.383 151.998 303.383C151.998 303.383 144.799 285.983 142.323 272.634C139.846 259.284 138.047 236.336 138.047 236.336H98.4393L95.9632 252.223L87.6514 306.982Z" fill="#4F4F4F"/>
<path d="M104.48 179.995C104.48 179.995 101.896 182.996 101.896 192.296C101.896 201.596 101.446 215.547 100.695 220.348C99.9441 225.148 97.6943 237.073 97.6943 237.073C97.6943 237.073 104.295 242.547 121.396 241.048C138.497 239.549 139.397 237.247 139.397 237.247C139.397 237.247 136.998 198.598 136.998 194.545C136.998 190.496 133.327 178.778 133.327 178.778C133.327 178.778 123.447 177.759 118.947 178.104C114.445 178.452 104.48 179.995 104.48 179.995Z" fill="#FDB827"/>
<path d="M96.7057 143.493C96.7057 143.493 89.5092 145.536 90.1054 152.92C90.6548 159.733 94.006 159.388 94.006 159.388C94.006 159.388 91.5574 169.044 98.9555 171.846C105.934 174.485 108.556 171.846 108.556 171.846C108.556 171.846 111.582 179.865 121.934 176.768C132.285 173.673 131.358 167.393 131.358 167.393C131.358 167.393 135.766 169.127 140.868 161.028C145.966 152.928 143.06 147.093 136.307 143.493C136.307 143.493 138.555 133.18 128.233 131.529C117.912 129.878 115.383 135.543 115.383 135.543C115.383 135.543 113.545 129.221 102.558 133.572C95.3558 136.421 96.7057 143.493 96.7057 143.493Z" fill="#13375B"/>
<path d="M125.219 158.952C124.46 161.072 125.003 163.206 126.439 163.719C127.871 164.233 129.649 162.93 130.408 160.81C131.167 158.69 130.621 156.556 129.188 156.042C127.758 155.529 125.981 156.832 125.219 158.952Z" fill="#966259"/>
<path d="M101.755 161.055C102.103 163.28 103.602 164.895 105.106 164.66C106.611 164.426 107.549 162.433 107.201 160.208C106.854 157.983 105.355 156.368 103.85 156.603C102.346 156.834 101.407 158.83 101.755 161.055Z" fill="#966259"/>
<path d="M114.094 170.797L114.494 179.548C114.494 179.548 114.693 182.949 118.243 183.399C121.793 183.849 125.042 181.102 125.042 178.35C125.042 177.999 123.292 165.999 123.292 165.999L114.094 170.797Z" fill="#966259"/>
<path d="M123.294 165.996L114.094 170.797L114.235 173.908C115.899 173.919 118.367 173.787 120.343 172.608C122.005 171.617 122.93 170.358 123.675 168.622C123.455 167.087 123.294 165.996 123.294 165.996Z" fill="#6B4744"/>
<path d="M118.823 142.43C118.823 142.43 123.179 143.673 125.785 148.07C128.394 152.465 129.967 165.091 120.932 170.482C111.9 175.874 105.86 167.217 105.225 159.167C104.48 149.646 108.634 140.813 118.823 142.43Z" fill="#966259"/>
</svg>
