<svg width="406" height="407" viewBox="0 0 406 407" fill="none" xmlns="http://www.w3.org/2000/svg">
<path d="M176.49 152.773L178.842 174.352C178.842 174.352 170.156 175.439 166.355 176.527C162.553 177.614 151.817 156.417 151.817 156.417C151.817 156.417 163.278 151.504 163.822 151.504C164.366 151.504 176.49 152.773 176.49 152.773Z" fill="#F9B5B2"/>
<path d="M52.7873 252.581L42.1287 404.868H47.458L64.3315 254.228L52.7873 252.581Z" fill="#07085B"/>
<path d="M164.711 252.581L175.366 404.868H170.036L153.167 254.228L164.711 252.581Z" fill="#07085B"/>
<path d="M6.28132 87.8277C6.28132 87.8277 91.4598 85.3033 96.9745 85.6986C102.489 86.0939 107.584 103.815 107.584 103.815C107.584 103.815 132.464 196.12 131.969 198.661C131.475 201.202 155.181 260.681 155.181 260.681C155.181 260.681 134.729 260.138 133.827 260.681C132.921 261.225 54.7353 253.973 53.6522 253.248C52.5649 252.523 48.5863 238.921 48.4051 238.196C48.2239 237.471 42.2521 184.515 42.2521 184.515L39.1757 155.317C39.1757 155.317 27.4133 130.266 27.2321 130.188C27.0509 130.109 16.1904 108.168 15.4697 107.076C14.7448 105.989 3.52612 93.8362 3.16369 92.749C2.79714 91.6618 6.28132 87.8277 6.28132 87.8277Z" fill="#57ACE5"/>
<path opacity="0.3" d="M6.28132 87.8277C6.28132 87.8277 35.6462 86.9587 61.0119 86.3204C51.1564 92.1189 45.6252 108.345 49.7313 137.201C53.2156 161.725 57.0911 188.341 72.5355 220.257C80.4924 236.697 114.742 227.488 142.809 229.115C148.859 244.81 155.181 260.681 155.181 260.681C155.181 260.681 134.729 260.138 133.827 260.681C132.921 261.225 54.7353 253.973 53.6522 253.248C52.5649 252.523 48.5863 238.921 48.4051 238.196C48.2239 237.471 42.2521 184.515 42.2521 184.515L39.1757 155.317C39.1757 155.317 27.4133 130.266 27.2321 130.188C27.0509 130.109 16.1904 108.168 15.4697 107.076C14.7448 105.989 3.52612 93.8361 3.16369 92.7489C2.79714 91.6617 6.28132 87.8277 6.28132 87.8277Z" fill="#57ACE5"/>
<path d="M170.745 263.93C170.926 261.015 168.731 258.503 165.828 258.305C156.726 257.687 137.039 256.279 116.797 254.36C77.9884 250.678 63.9568 247.663 58.9363 246.09C57.2025 245.547 55.8722 244.138 55.4274 242.376C54.0642 236.952 53.2651 225.693 52.5979 216.275C50.0651 180.537 45.8849 121.605 9.16035 89.2484C6.87048 87.2305 3.34077 87.5888 1.47921 90.0144C-0.21349 92.2218 0.0748711 95.3763 2.16294 97.2089C35.6174 126.584 39.4599 180.751 42.0298 217.028C43.496 237.71 44.4021 247.861 48.9201 252.581C51.0987 254.858 55.1515 259.096 114.157 264.766C135.091 266.776 155.696 268.254 165.107 268.893C168.039 269.09 170.564 266.863 170.745 263.93Z" fill="#026EAF"/>
<path d="M168.196 188.86C168.196 188.86 165.865 106.891 161.536 97.4601C157.208 88.0294 141.891 86.2174 141.891 86.2174C141.891 86.2174 101.966 80.2872 91.5919 90.0926C90.8177 90.8257 72.7663 114.781 75.6533 228.394C75.6533 228.394 109.94 209.533 168.196 199.863V188.86Z" fill="white"/>
<path d="M193.302 405.277L151.771 386.036C151.157 385.752 150.894 385.023 151.174 384.41L152.236 382.108C152.521 381.494 153.245 381.226 153.859 381.51L195.39 400.751C196.004 401.035 196.267 401.764 195.987 402.377L194.925 404.679C194.641 405.293 193.916 405.561 193.302 405.277Z" fill="black"/>
<path d="M161.1 368.18L153.843 380.094C152.949 381.564 153.143 383.364 154.251 383.878L192.804 401.739C193.804 402.204 195.089 402.019 196.172 401.055C197.284 400.067 198.252 398.251 197.684 394.944C196.568 388.45 186.156 382.087 182.4 375.374C182.264 375.135 182.067 374.942 181.82 374.827L164.242 366.685C163.237 366.215 161.907 366.85 161.1 368.18Z" fill="black"/>
<path d="M176.099 381.045C175.901 380.74 176.021 380.209 176.354 379.917C177.907 378.545 182.211 375.44 186.626 378.533C186.881 378.71 186.894 379.18 186.667 379.55L186.659 379.563C186.436 379.921 186.074 380.053 185.827 379.88C181.861 377.124 178.142 379.892 176.861 381.053C176.589 381.305 176.264 381.3 176.099 381.045Z" fill="black"/>
<path d="M179.357 384.521C179.159 384.216 179.279 383.685 179.612 383.392C181.165 382.021 185.469 378.916 189.884 382.009C190.139 382.186 190.151 382.655 189.925 383.026L189.917 383.038C189.694 383.397 189.332 383.528 189.085 383.355C185.119 380.6 181.4 383.368 180.123 384.529C179.847 384.776 179.522 384.772 179.357 384.521Z" fill="black"/>
<path d="M182.384 387.758C182.186 387.453 182.305 386.922 182.639 386.629C184.192 385.258 188.496 382.153 192.911 385.246C193.166 385.423 193.178 385.892 192.952 386.263L192.944 386.275C192.721 386.634 192.359 386.765 192.112 386.592C188.145 383.837 184.427 386.605 183.15 387.766C182.87 388.013 182.544 388.009 182.384 387.758Z" fill="black"/>
<path opacity="0.3" d="M164.765 386.716C165.543 377.932 162.318 374.374 159.629 372.932C159.024 372.607 158.258 372.842 157.891 373.447L153.843 380.094C152.949 381.564 153.142 383.364 154.25 383.879L162.87 387.873C163.711 388.26 164.678 387.659 164.765 386.716Z" fill="black"/>
<path d="M265.664 406.162L221.555 393.976C220.904 393.795 220.521 393.124 220.702 392.469L221.374 390.023C221.551 389.372 222.226 388.989 222.877 389.166L266.986 401.352C267.637 401.533 268.02 402.204 267.838 402.859L267.167 405.305C266.99 405.96 266.314 406.343 265.664 406.162Z" fill="black"/>
<path d="M227.843 374.835L222.625 387.774C221.983 389.372 222.469 391.114 223.647 391.439L264.593 402.748C265.656 403.04 266.895 402.649 267.805 401.521C268.74 400.363 269.399 398.416 268.3 395.244C266.137 389.022 254.832 384.446 250.03 378.438C249.857 378.224 249.63 378.067 249.367 377.993L230.697 372.837C229.635 372.549 228.428 373.393 227.843 374.835Z" fill="black"/>
<path d="M244.742 385.073C244.499 384.805 244.532 384.261 244.808 383.919C246.113 382.309 249.853 378.545 254.717 380.872C254.997 381.008 255.087 381.465 254.923 381.869L254.919 381.881C254.758 382.268 254.42 382.462 254.148 382.33C249.787 380.258 246.571 383.598 245.496 384.957C245.265 385.246 244.944 385.295 244.742 385.073Z" fill="black"/>
<path d="M248.522 387.968C248.279 387.7 248.312 387.156 248.588 386.814C249.894 385.204 253.637 381.44 258.497 383.771C258.777 383.907 258.868 384.364 258.703 384.768L258.699 384.78C258.539 385.171 258.201 385.361 257.929 385.229C253.567 383.158 250.351 386.497 249.276 387.856C249.045 388.141 248.724 388.19 248.522 387.968Z" fill="black"/>
<path d="M252.036 390.665C251.789 390.397 251.822 389.854 252.102 389.512C253.407 387.902 257.147 384.138 262.011 386.469C262.291 386.604 262.381 387.062 262.216 387.465L262.212 387.478C262.052 387.869 261.714 388.058 261.442 387.926C257.081 385.855 253.864 389.195 252.789 390.554C252.559 390.842 252.238 390.892 252.036 390.665Z" fill="black"/>
<path opacity="0.3" d="M234.483 392.522C233.819 383.73 230.059 380.748 227.168 379.764C226.517 379.542 225.801 379.9 225.537 380.555L222.625 387.774C221.983 389.372 222.469 391.114 223.646 391.439L232.802 393.968C233.696 394.219 234.557 393.47 234.483 392.522Z" fill="black"/>
<path d="M158.892 156.416C158.147 149.909 157.492 143.946 157.492 143.16C157.492 141.348 162.418 97.4601 162.418 97.4601C162.418 97.4601 174.547 123.94 177.434 153.678C173.743 155.535 167.722 157.425 158.892 156.416Z" fill="#033E68"/>
<path d="M161.565 174.055L160.989 174.351C160.989 174.351 160.935 173.902 160.84 173.116C161.083 173.437 161.326 173.75 161.565 174.055Z" fill="#F4A640"/>
<path d="M160.988 199.864C160.988 199.864 260.409 210.988 265.718 244.839C271.026 278.691 250.034 378.446 250.034 378.446C250.034 378.446 233.383 377.343 227.111 373.476C227.111 373.476 233.387 262.251 224.216 254.995C215.048 247.743 164.856 230.331 163.888 228.395C162.92 226.46 160.988 199.864 160.988 199.864Z" fill="#053455"/>
<path d="M160.988 199.864C160.988 199.864 227.107 236.133 227.107 257.412C227.107 278.691 201.527 357.999 182.705 375.407C182.705 375.407 171.12 373.471 160.988 368.155L183.673 265.632C183.673 265.632 82.803 252.091 76.5306 228.395L101.332 202.282L160.988 199.864Z" fill="#033E68"/>
<path d="M377.926 199.864H385.405V404.667H377.926V199.864Z" fill="#183658"/>
<path d="M307.343 199.864H314.822V404.667H307.343V199.864Z" fill="#183658"/>
<path d="M93.8529 199.864H101.332V404.667H93.8529V199.864Z" fill="#183658"/>
<path d="M23.2703 199.864H30.7497V404.667H23.2703V199.864Z" fill="#183658"/>
<path d="M5.49896 202.282H402.138C403.959 202.282 405.433 200.807 405.433 198.987V192.517C405.433 190.697 403.959 189.223 402.138 189.223H5.49896C3.67859 189.223 2.20416 190.697 2.20416 192.517V198.987C2.20416 200.803 3.67859 202.282 5.49896 202.282Z" fill="#FEE4CB"/>
<path d="M119.964 69.9382V90.4058C119.964 91.5424 120.615 92.5801 121.64 93.062C124.762 94.5281 131.747 96.929 138.267 93.099C139.148 92.5842 139.667 91.6124 139.667 90.591V72.1044L119.964 69.9382Z" fill="#FFC0BB"/>
<path d="M119.964 80.9009V69.9382L139.667 72.1044V81.4033C135.969 82.5276 129.091 83.6477 119.964 80.9009Z" fill="#F99893"/>
<path d="M152.249 47.914C151.182 51.1591 152.418 54.4825 155.008 55.339C157.599 56.1956 160.564 54.256 161.631 51.0108C162.698 47.7657 161.462 44.4424 158.872 43.5858C156.281 42.7333 153.316 44.6689 152.249 47.914Z" fill="#F99893"/>
<path d="M152.616 66.4417C153.307 65.025 153.872 63.5384 154.296 61.9899C155.523 57.8264 155.989 53.4611 156.096 49.6765C156.12 48.8652 156.186 48.0539 156.273 47.2468C156.615 43.9851 156.367 40.567 155.371 37.1036C152.162 25.9639 141.833 18.1146 130.26 18.0528C114.672 17.9705 102.691 31.124 103.729 46.2955C102.02 45.4924 100.158 45.41 98.5809 46.2501C95.5538 47.8645 94.7342 52.2421 96.744 56.035C98.758 59.8237 102.839 61.5905 105.866 59.9761C106.287 59.7538 106.661 59.4696 106.995 59.1484C109.194 71.9642 120.434 81.2014 133.077 80.1183C139.259 79.587 144.696 76.6796 148.633 72.3307C148.901 72.0754 149.177 71.7789 149.465 71.433C150.738 69.9216 151.767 68.229 152.616 66.4417Z" fill="#FFC0BB"/>
<path d="M127.513 46.9504C127.62 48.2188 126.681 49.3348 125.417 49.446C124.148 49.5531 123.037 48.6142 122.925 47.3458C122.818 46.0774 123.757 44.9614 125.022 44.8502C126.29 44.739 127.406 45.6821 127.513 46.9504Z" fill="#333333"/>
<path d="M147.323 46.5591C147.43 47.8275 146.492 48.9435 145.227 49.0547C143.963 49.1659 142.847 48.2229 142.74 46.9544C142.632 45.686 143.571 44.57 144.836 44.4588C146.1 44.3476 147.212 45.2865 147.323 46.5591Z" fill="#333333"/>
<path d="M129.894 42.1567C128.728 41.7902 127.625 41.5102 126.529 41.3496C125.434 41.189 124.354 41.1725 123.308 41.3166C122.266 41.4731 121.22 41.7202 120.228 42.2061L119.841 42.3626C119.713 42.4162 119.598 42.4985 119.47 42.5603L118.712 42.9556C118.202 43.2316 117.732 43.5734 117.168 43.8493C117.46 43.3181 117.794 42.7992 118.185 42.3215C118.622 41.8973 119.021 41.3907 119.56 41.0613C120.561 40.287 121.817 39.83 123.086 39.6488C124.367 39.4717 125.681 39.6364 126.854 40.0729C128.028 40.5259 129.111 41.2013 129.894 42.1567Z" fill="#333333"/>
<path d="M137.014 36.5329C137.73 35.5281 138.764 34.7827 139.897 34.2515C141.041 33.7326 142.339 33.4813 143.628 33.5678C144.909 33.6626 146.194 34.0291 147.244 34.7333C147.804 35.0257 148.24 35.4993 148.702 35.8946C149.126 36.3435 149.493 36.8418 149.822 37.3525C149.237 37.1177 148.747 36.8048 148.22 36.5659L147.437 36.2199C147.306 36.1664 147.186 36.0964 147.054 36.0511L146.659 35.9193C145.638 35.5034 144.575 35.3304 143.525 35.2439C142.471 35.1698 141.396 35.2604 140.313 35.4993C139.229 35.734 138.146 36.0882 137.014 36.5329Z" fill="#333333"/>
<path d="M132.681 38.9071C133.624 40.0519 134.46 41.2709 135.242 42.527C136.025 43.783 136.733 45.0844 137.339 46.4558C137.627 47.1476 137.895 47.8559 138.056 48.6343C138.088 48.8319 138.113 49.0337 138.117 49.252C138.121 49.3591 138.105 49.4785 138.097 49.5938C138.064 49.7215 138.051 49.8409 137.986 49.9727C137.953 50.0386 137.911 50.1045 137.874 50.1662L137.771 50.2816C137.701 50.3557 137.639 50.4339 137.569 50.504C137.425 50.6357 137.281 50.7757 137.129 50.891C136.532 51.3811 135.881 51.76 135.222 52.0977C134.554 52.4272 133.875 52.7236 133.167 52.946C134.398 52.1389 135.642 51.3317 136.659 50.3557C136.787 50.2363 136.898 50.1045 137.013 49.9768L137.17 49.7833L137.244 49.6886C137.248 49.6721 137.252 49.6556 137.261 49.6391C137.326 49.4868 137.289 49.1161 137.211 48.8031C137.05 48.1442 136.795 47.4688 136.503 46.8099C135.939 45.4839 135.275 44.1784 134.625 42.8688C133.97 41.5592 133.307 40.2496 132.681 38.9071Z" fill="#F99893"/>
<path d="M108.073 7.36363C108.073 7.36363 115.338 0.601565 132.355 1.15752C149.373 1.71348 152.898 10.79 154.274 23.8529L154.299 38.2172C154.299 38.2172 149.216 34.902 143.059 22.0656C143.059 22.0656 133.9 33.3865 129.72 32.2005C125.535 31.0144 130.992 22.8975 130.992 22.8975C130.992 22.8975 113.003 40.8528 101.591 41.1617C101.591 41.1617 94.0742 21.0155 102.315 13.3638C102.315 13.3638 95.9399 13.8663 95.561 12.5773C95.1821 11.2883 98.5017 9.24567 104.663 9.7975C104.663 9.7975 100.009 1.07514 102.422 0.0826524C104.836 -0.909835 108.073 7.36363 108.073 7.36363Z" fill="#333333"/>
<path d="M140.3 57.7387C139.563 60.535 136.256 62.6229 132.306 62.5818C128.357 62.5447 125.091 60.395 124.407 57.5863L140.3 57.7387Z" fill="white"/>
<path d="M117.228 109.693C117.22 109.664 117.211 109.639 117.203 109.609C117.211 109.639 117.22 109.664 117.228 109.693Z" fill="#FFC0BB"/>
<path d="M116.701 107.897C116.688 107.86 116.68 107.822 116.668 107.785C116.68 107.822 116.693 107.86 116.701 107.897Z" fill="#FFC0BB"/>
<path d="M116.19 106.138C116.182 106.117 116.178 106.097 116.173 106.072C116.178 106.097 116.186 106.117 116.19 106.138Z" fill="#FFC0BB"/>
<path d="M115.272 102.943C115.268 102.926 115.263 102.909 115.255 102.888C115.263 102.905 115.268 102.926 115.272 102.943Z" fill="#FFC0BB"/>
<path d="M114.127 98.8903C114.114 98.8448 114.102 98.8075 114.09 98.7619C114.102 98.8033 114.114 98.8448 114.127 98.8903Z" fill="#FFC0BB"/>
<path d="M100.301 165.036C118.983 164.283 132.124 151.537 132.124 151.537C132.738 152.513 133.302 153.18 133.793 153.456C139.583 156.722 212.83 172.408 220.071 171.774C227.311 171.139 234.127 178.363 235.573 183.922H208.72H206.859H112.801C112.796 183.922 99.9057 164.332 100.301 165.036Z" fill="#FFC0BB"/>
<path d="M114.473 100.125C114.465 100.096 114.456 100.067 114.448 100.035C114.456 100.067 114.465 100.096 114.473 100.125Z" fill="#FFC0BB"/>
<path d="M114.872 101.542C114.856 101.48 114.839 101.422 114.823 101.36C114.839 101.418 114.856 101.48 114.872 101.542Z" fill="#FFC0BB"/>
<path d="M300.714 166.654V149.419H370.292V166.654H300.714Z" fill="#97CEF7"/>
<path d="M283.76 184.273V166.651L380.339 166.651V184.273L283.76 184.273Z" fill="#142666"/>
<path d="M292.039 184.274V166.652H297.648V184.274H292.039Z" fill="white"/>
<path opacity="0.5" d="M3.29479 196.976H112.896C114.716 196.976 116.191 195.502 116.191 193.681V187.212C116.191 185.391 114.716 183.917 112.896 183.917H3.29479C1.47443 183.917 7.62939e-06 185.391 7.62939e-06 187.212V193.681C7.62939e-06 195.497 1.47443 196.976 3.29479 196.976Z" fill="#E0A689"/>
<path d="M107.095 88.9795C109.702 91.5781 111.493 94.8809 112.486 98.4308C115.616 109.653 126.489 142.417 131.975 151.131C131.975 151.131 117.329 165.866 98.6475 166.62C92.1279 155.052 85.5629 138.554 84.1832 122.531C81.7368 94.1684 94.9657 76.8802 107.095 88.9795Z" fill="#033E68"/>
</svg>
