<svg width="294" height="330" viewBox="0 0 294 330" fill="none" xmlns="http://www.w3.org/2000/svg">
<path d="M189.931 146H97V226.259H189.931V146Z" fill="#E9E9E9"/>
<path d="M106.152 231.273L184.573 231.273V225.143H106.152V231.273Z" fill="#184655"/>
<path d="M131.884 266.066H183.156V260.702H131.884V266.066Z" fill="#184655"/>
<path d="M117.157 228.209H113.849V311.812H117.157V228.209Z" fill="#184655"/>
<path d="M163.939 228.209H160.631V311.812H163.939V228.209Z" fill="#184655"/>
<path d="M140.685 311.812L122.865 228.928L125.787 227.49L143.914 311.812H140.685Z" fill="#184655"/>
<path d="M190.813 311.812L175.57 228.747L178.53 227.503L194 311.812H190.813Z" fill="#184655"/>
<path d="M199.254 175.237C207.956 168.192 230.753 177.932 234.148 182.477C237.488 186.947 244.268 234.129 239.279 237.393C234.287 240.657 218.845 247.264 212.421 241.435C205.996 235.607 199.254 175.237 199.254 175.237Z" fill="#3259A1"/>
<path d="M191.439 172.705C191.439 172.705 176.652 165.147 174.65 161.396C172.647 157.643 164.282 145.01 164.282 145.01C164.282 145.01 160.01 145.551 158.879 147.465C160.266 152.673 164.525 167.099 170.03 171.352C175.535 175.606 190.028 184.372 190.028 184.372L191.439 172.705Z" fill="#FFA283"/>
<path d="M188.515 261.717C188.515 261.717 188.015 271.972 188.015 278.228C188.015 284.484 197.647 308.997 196.77 312.5C195.893 316.002 205.847 315.526 205.847 315.526C205.847 315.526 206.526 296.491 203.962 287.484C201.398 278.479 203.962 259.968 203.962 259.968L188.515 261.717Z" fill="#FFA283"/>
<path d="M212.675 256.773C212.675 256.773 215.907 273.726 218.535 277.602C221.163 281.479 235.295 307.872 235.295 311.248C235.295 314.625 244.177 311.874 244.177 311.874C244.177 311.874 236.672 282.981 233.67 274.226C230.667 265.47 229.542 258.217 229.542 258.217L212.675 256.773Z" fill="#FFA283"/>
<path d="M188.389 239.954C187.469 245.531 183.731 279.415 183.731 279.415C183.731 279.415 196.484 283.332 204.114 281.581C204.114 281.581 203.9 254.34 205.651 254.34C205.67 254.34 205.686 254.34 205.705 254.34C208.207 254.354 210.405 256.1 211.009 258.53C212.469 264.401 216.479 282.107 216.479 282.107C216.479 282.107 232.598 279.862 236.1 278.236C236.1 278.236 230.715 239.909 224.836 234.03L217.784 227.699L192.078 224.386C192.078 224.381 189.041 236.006 188.389 239.954Z" fill="#4F4F4F"/>
<path d="M181.635 323.255H208.964C208.964 323.255 209.528 313.374 207.651 311.497C205.774 309.62 206.274 311.735 203.149 312.927C200.021 314.122 197.987 311.24 196.559 309.813C195.129 308.385 196.144 314.374 190.142 314.374C184.138 314.374 180.259 320.504 181.635 323.255Z" fill="#466EB6"/>
<path d="M235.007 310.16C233.592 310.486 229.144 314.114 227.668 318.039C226.192 321.964 226.615 323.367 226.615 323.367C226.615 323.367 231.135 325.378 239.816 324.744C248.497 324.11 247.171 323.159 247.171 323.159C247.171 323.159 246.551 314.229 245.078 311.513C243.605 308.797 237.482 309.591 235.007 310.16Z" fill="#466EB6"/>
<path d="M239.747 190.179C239.747 190.179 255.336 195.9 259.451 194.823C263.565 193.743 278.521 191.305 278.521 191.305C278.521 191.305 281.026 194.807 280.387 196.938C275.623 199.456 262.14 206.126 255.28 204.974C248.42 203.822 232.144 199.138 232.144 199.138L239.747 190.179Z" fill="#FFA283"/>
<path d="M275.888 199.012C274.89 197.082 273.923 194.379 273.257 192.35C274.647 192.208 275.671 192.045 276.051 191.866C277.829 191.027 280.686 183.308 281.542 183.348C282.398 183.388 281.138 187.653 281.665 187.677C282.192 187.701 288.712 182.399 289.538 183.327C290.365 184.257 284.306 188.163 284.828 188.749C285.349 189.334 292.49 184.589 292.68 186.081C292.872 187.575 286.068 189.861 286.373 190.7C286.678 191.54 292.835 189.067 293.418 189.719C293.998 190.374 292.543 190.823 290.91 191.473C289.279 192.123 286.913 192.869 287.25 193.248C287.587 193.628 292.14 192.783 292.509 193.628C292.878 194.47 279.844 197.061 277.609 198.309C277.355 198.448 276.754 198.694 275.888 199.012Z" fill="#FFA283"/>
<path d="M251.79 192.524C251.79 192.524 249.911 201.515 244.021 205.6C237.466 203.926 230.472 201.098 229.683 203.474C228.975 205.611 229.435 223.103 228.523 232.514C221.476 236.594 188.335 233.901 188.314 229.589C188.298 226.295 196.294 193.286 191.69 189.69C190.017 188.383 175.791 180.755 175.791 180.755C175.791 180.755 181.726 169.083 185.376 165.463C185.376 165.463 192.503 169.189 199.312 171.93C208.245 175.523 215.768 176.518 220.738 178.825C238.255 186.952 241.051 188.428 251.79 192.524Z" fill="#FDB827"/>
<path d="M221.5 179.175C216.853 193.05 222.797 222.595 229.363 229.958C231.255 225.376 223.962 206.79 229.349 183.215C229.507 182.02 221.968 177.894 221.5 179.175Z" fill="#466EB6"/>
<path d="M208.558 175.047C201.845 182.34 191.773 209.444 191.56 210.792C191.854 187.11 200.898 175.889 202.401 173.138C203.39 172.472 208.675 174.333 208.558 175.047Z" fill="#466EB6"/>
<path d="M207.384 168.141V180.525C207.384 180.525 211.918 185.404 217.797 182.025L220.505 166.088L207.384 168.141Z" fill="#FFA283"/>
<path opacity="0.68" d="M207.384 174.381C211.129 175.325 215.76 173.734 219.743 170.577L220.505 166.091L207.384 168.144V174.381Z" fill="#FF7F4C"/>
<path d="M207.729 146.663C207.729 146.663 194.952 161.995 200.772 169.521C206.593 177.044 219.797 171.935 226.328 162.423C232.86 152.911 210.143 139.564 207.729 146.663Z" fill="#FFA283"/>
<path d="M220.225 152.199C220.225 152.199 224.909 152.341 223.064 156.742C221.219 161.142 217.883 162.634 219.658 164.409C220.88 165.628 220.182 168.125 219.629 169.564C219.343 170.307 219.297 171.125 219.532 171.887L219.564 171.989C220.08 173.684 221.711 174.788 223.478 174.635C227.777 174.264 234.969 172.101 234.568 161.709C234.568 161.709 238.151 155.036 234.584 149.924C231.018 144.813 228.32 145.24 228.32 145.24C228.32 145.24 227.042 140.415 223.067 139.278C219.091 138.142 207.451 134.025 206.173 140.415C204.89 146.804 210.571 151.491 220.225 152.199Z" fill="#011037"/>
<path d="M218.963 160.223C219.294 160.051 224.016 157.862 224.714 160.541C225.361 163.027 224.462 166.877 221.075 166.877C217.688 166.877 214.704 162.404 218.963 160.223Z" fill="#FFA283"/>
<path d="M208.964 323.255C208.964 323.255 209.082 321.202 209.031 318.793C205.826 320.178 188.242 319.956 181.853 319.825C181.296 321.108 181.187 322.359 181.636 323.255H208.964Z" fill="white"/>
<path d="M239.816 324.742C248.497 324.108 247.171 323.156 247.171 323.156C247.171 323.156 247.029 321.1 246.717 318.659H246.714C240.672 324.052 231.234 321.301 227.107 319.694C226.313 322.367 226.612 323.367 226.612 323.367C226.612 323.367 231.138 325.375 239.816 324.742Z" fill="white"/>
<path d="M160.414 152.173C162.507 151.593 165.149 150.467 167.089 149.58C166.25 148.462 165.675 147.601 165.55 147.2C164.959 145.326 168.686 137.985 168.073 137.386C167.461 136.787 165.189 140.605 164.812 140.233C164.435 139.864 163.9 131.477 162.657 131.501C161.414 131.525 162.66 138.626 161.876 138.64C161.093 138.656 159.727 130.191 158.502 131.063C157.275 131.937 160.216 138.482 159.393 138.829C158.569 139.177 156.203 132.975 155.329 132.993C154.455 133.012 155.112 134.386 155.743 136.025C156.374 137.664 157.433 139.907 156.925 139.918C156.42 139.928 153.944 136.014 153.075 136.314C152.206 136.613 159.157 147.941 159.759 150.43C159.831 150.713 160.058 151.323 160.414 152.173Z" fill="#FFA283"/>
<path d="M111.61 311.309L110.878 322.575C110.608 326.345 107.333 329.181 103.563 328.914L103.175 328.887C99.4056 328.617 96.5691 325.342 96.8391 321.573L97.5716 310.307L111.61 311.309Z" fill="white"/>
<path d="M99.9219 327.786C100.866 328.404 101.972 328.799 103.176 328.885L103.563 328.912C107.333 329.182 110.608 326.345 110.878 322.573L111.61 311.307L104.59 310.804L103.857 322.07C103.675 324.639 102.098 326.77 99.9219 327.786Z" fill="#F0F0F0"/>
<path d="M130.231 23.8818L111.61 311.309L97.5713 310.304L116.19 22.8765L123.59 17.0162L130.231 23.8818Z" fill="#749BE3"/>
<path d="M123.21 23.379L104.592 310.807L111.61 311.309L130.231 23.8816L123.21 23.379Z" fill="#E0E0E0"/>
<path d="M126.518 7.5948L130.229 23.8817C129.026 28.3358 124.831 28.8838 122.179 23.2348C120.596 19.8608 116.984 29.8062 116.188 22.8765L122.181 7.28467L126.518 7.5948Z" fill="white"/>
<path d="M112.407 309.315L112.198 312.245C112.177 312.536 111.926 312.756 111.634 312.734L97.3471 311.713C97.0557 311.691 96.8365 311.44 96.8579 311.149L97.0664 308.219C97.0878 307.927 97.3391 307.708 97.6305 307.729L111.918 308.753C112.209 308.769 112.428 309.023 112.407 309.315Z" fill="#B3B3B3"/>
<path d="M125.571 0.646453L126.52 7.59487C125.464 8.83804 124.02 8.73644 122.184 7.28473L124.111 0.542183C124.207 0.202649 124.531 -0.0246032 124.884 0.00213174C125.237 0.0261932 125.523 0.296225 125.571 0.646453Z" fill="#749BE3"/>
<path d="M26.2728 183.973C26.2728 183.973 25.9092 182.198 25.8343 181.597C25.7461 180.893 25.6472 178.765 25.6472 178.765C25.6472 178.765 25.6445 171.338 26.1952 171.384C26.7433 171.429 27.4545 172.702 27.6175 173.162C27.7779 173.619 28.0105 174.14 28.171 174.597C28.3314 175.055 28.8046 175.314 29.3901 175.156C29.9729 174.996 29.7296 173.031 29.5104 172.368C28.826 170.301 25.8798 165.152 25.5937 164.593C25.2542 163.933 27.6202 151.052 28.08 146.574H28.0827C29.0559 139.267 30.4194 131.803 30.5263 131.03L43.5382 102.269L34.852 93.3979C34.852 93.3979 19.9606 125.116 19.3992 126.787C19.1319 127.584 18.1908 144.694 18.1961 144.694C18.263 153.148 18.3459 160.599 18.3191 162.029C18.3191 162.029 17.092 166.291 16.1536 168.959C15.2125 171.627 15.4184 174.458 15.2687 175.25C15.2473 175.365 14.5842 178.057 15.0387 181.431C15.4291 184.34 16.4022 181.385 16.4022 181.385C16.4022 181.385 16.6535 175.859 17.0866 175.947C17.4208 176.017 17.1053 179.03 17.5064 182.249C17.608 183.078 17.7122 183.896 17.8165 184.644C18.0839 186.612 19.3778 186.997 19.4286 184.888C19.4473 184.142 19.4473 182.907 19.3217 182.027C19.1853 181.075 19.3698 180.156 19.3778 179.337C19.3965 177.712 19.3885 176.53 19.4554 176.565C19.5436 176.613 19.7762 176.29 19.9125 177.167C20.0756 178.22 19.9259 180.538 20.2895 182.067C20.4953 182.933 20.8135 184.77 20.8135 184.77C20.8135 184.77 21.6556 187.689 21.8348 187.681C22.7999 187.641 22.7972 185.374 22.3641 184.235C22.463 183.364 22.0754 181.442 22.0754 181.442C22.0754 181.442 22.1689 177.364 22.7491 177.364C23.2276 177.362 24.9013 187.144 25.8664 187.034C26.6417 186.938 26.2728 183.973 26.2728 183.973Z" fill="#F7A491"/>
<path d="M38.2445 118.927C38.2445 118.927 32.844 117.994 29.978 116.927C26.1576 115.508 23.6445 114.262 23.6445 114.262C23.6445 114.262 27.8392 96.3147 33.0713 85.4148C35.2341 80.91 37.4211 78.7364 40.4715 78.2151C40.4902 78.2124 46.9013 82.4366 46.6473 92.6145C46.5885 95.002 38.2445 118.927 38.2445 118.927Z" fill="#B75742"/>
<path d="M54.8525 179.241L61.8517 243.638C61.8517 243.638 58.4297 257.256 58.8441 261.125C59.2558 264.994 66.4528 315.745 66.4528 315.745L66.1481 318.592L66.14 326.997H92.8483C92.8483 326.997 87.1805 324.383 79.2509 319.217C78.6654 318.835 77.3126 317.616 76.9837 315.188C74.8663 299.546 79.0557 247.367 79.0557 247.367L82.3548 179.45L54.8525 179.241Z" fill="#F7A491"/>
<path d="M33.3868 192.788C31.8789 193.181 29.5557 248.551 28.3071 251.003C20.3882 266.56 18.5061 313.862 18.5061 313.862L16.2042 320.597L13.7393 328.858C13.7393 328.858 21.6474 331.023 25.794 328.665L25.3342 320.522L24.9145 313.076L44.8935 254.147L55.8254 194.039L33.3868 192.788Z" fill="#F7A491"/>
<path d="M73.126 85.5299C69.9018 80.9956 56.6038 67.8581 55.128 67.8848C50.821 67.9623 36.6863 67.9677 33.9219 69.414L33.9379 72.5073C34.0128 86.3399 35.7773 100.114 39.2582 113.503C41.683 122.833 43.9822 132.797 43.6989 136.377L43.7657 136.444C51.9439 144.574 64.8435 143.935 72.324 135.03C72.324 135.03 72.2919 125.111 73.4442 116.064C75.2461 101.889 81.1305 96.796 73.126 85.5299Z" fill="#5E5DBA"/>
<path d="M50.7939 53.8088C50.7939 53.8088 51.1655 63.035 50.3608 66.532C49.5561 70.0316 48.4814 70.2936 55.3923 71.3576C58.1059 71.7774 60.726 72.4003 60.726 72.4003C60.726 72.4003 60.0175 67.2645 59.9105 65.0963C59.7341 61.5245 60.7099 50.4963 60.7099 50.4963L50.7939 53.8088Z" fill="#F7A491"/>
<path d="M56.055 58.3992C57.4773 59.1905 58.806 59.6584 60.0305 59.8509C60.2657 55.4958 60.7069 50.4963 60.7069 50.4963L51.248 53.6564C52.3469 55.5412 53.9082 57.2041 56.055 58.3992Z" fill="#F47458"/>
<path d="M52.9865 27.9668C52.9865 27.9668 49.0378 29.3597 46.8562 33.7095C44.6773 38.0592 43.8619 50.2825 52.4545 55.0653C56.7081 57.4314 61.6139 57.8805 63.9238 55.8006C66.2792 53.6751 65.9931 48.9564 65.7578 45.0344C65.29 37.2599 63.5816 25.4938 52.9865 27.9668Z" fill="#F7A491"/>
<path d="M46.6551 43.3127C47.1417 45.3526 46.492 47.323 45.2007 47.7133C43.9094 48.1036 42.4684 46.7642 41.9818 44.7216C41.4952 42.6791 42.1449 40.7114 43.4362 40.3211C44.7248 39.9334 46.1685 41.2728 46.6551 43.3127Z" fill="#F7A491"/>
<path d="M25.3346 320.49C21.688 322.161 17.7847 321.129 16.2046 320.597L13.6729 328.887C13.6729 328.887 21.6372 331.245 25.7838 328.89L25.3346 320.49Z" fill="#F47458"/>
<path d="M28.7988 225.672C28.8015 225.68 28.8042 225.68 28.8069 225.672H28.7988Z" fill="#F47458"/>
<path d="M65.8614 329.088H93.6284C94.655 328.992 94.9063 328.128 94.548 327.596C93.8155 326.5 90.5752 325.695 86.9339 323.95C80.5469 324.642 67.1474 320.105 66.1395 318.578C65.5593 321.632 65.292 328.957 65.8614 329.088Z" fill="#F47458"/>
<path d="M121.634 106.506C122.171 105.757 123.973 102.1 123.973 102.1C123.973 102.1 125.839 95.8333 125.452 95.9162C125.222 95.9643 124.454 96.8519 123.543 98.7474C122.987 99.9051 122.377 101.934 121.8 102.937C120.789 104.696 119.658 105.429 119.939 104.749C120.142 104.255 120.834 103.848 121.447 102.795C122.93 100.231 124.243 96.0365 123.671 96.1221C123.168 96.1969 121.735 99.087 120.145 101.335C119.452 102.317 117.485 103.544 116.249 104.322C116.265 103.768 116.415 103.212 116.501 102.948C116.658 102.458 118.864 99.5308 118.001 99.1645C117.137 98.7956 111.889 105.132 111.889 105.132L109.734 108.805L109.544 108.947H109.536C109.536 108.947 83.3494 119.213 82.4725 118.935C80.4139 118.283 73.3746 97.8839 73.3746 97.8839L58.7238 100.525C58.5126 100.41 74.1258 130.886 77.0372 132.38C79.5931 133.693 106.815 119.513 111.926 116.475C118.968 113.764 121.717 110.543 122.861 108.891C123.476 108.003 125.834 104.148 125.834 104.148C125.834 104.148 126.339 98.8063 125.957 98.7581C124.666 98.6004 124.307 103.635 124.307 103.635C124.307 103.635 122.562 106.011 122.257 106.321C121.5 107.099 121.634 106.506 121.634 106.506Z" fill="#F8A492"/>
<path d="M49.2596 80.1106C47.2598 88.5856 57.9243 107.482 57.9243 107.482C57.9243 107.482 73.1178 100.103 75.7886 96.9215C75.7886 96.9215 65.3085 79.6267 64.6589 78.4958C63.2553 76.0549 58.3334 71.0127 55.0156 71.9404C52.9062 72.5312 49.2596 80.1106 49.2596 80.1106Z" fill="#494896"/>
<path d="M51.6761 59.2121C52.8124 51.4349 65.7067 35.5944 60.7259 28.9748C56.697 23.6171 49.6684 25.2212 45.1929 26.7612C24.8904 33.7443 26.056 59.2682 19.6477 63.2597C8.02866 70.4969 0.882402 75.0017 0.0429242 91.3047C-0.951616 110.639 15.4717 120.515 35.2181 115.783C45.8372 113.241 48.6498 109.765 52.9086 99.7396C54.8282 95.2187 58.6994 81.1213 57.6407 74.2317C56.6916 68.0613 50.7618 65.4761 51.6761 59.2121Z" fill="#184655"/>
<path d="M59.3914 44.9623C59.3914 47.2642 58.5546 49.1303 57.5253 49.1303C56.4933 49.1303 55.6592 47.2642 55.6592 44.9623C55.6592 42.6604 56.496 40.7943 57.5253 40.7943C58.5572 40.7943 59.3914 42.6604 59.3914 44.9623Z" fill="#F7A491"/>
<path d="M84.8488 221.13L85.7978 182.925C85.9636 172.127 83.8248 161.428 79.5419 151.595L72.3234 135.027C69.404 135.984 66.6503 136.797 63.5811 137.152C56.9054 137.922 50.3366 137.158 43.6983 136.374C43.6769 136.634 43.6475 136.858 43.6074 137.051C42.4017 142.676 35.6912 155.22 32.8653 172.365C29.6571 191.825 28.4567 220.932 28.8577 223.215C59.5361 224.61 66.8508 225.715 84.8488 221.13Z" fill="#4F4F4F"/>
</svg>
