<svg width="271" height="405" viewBox="0 0 271 405" fill="none" xmlns="http://www.w3.org/2000/svg">
<g opacity="0.3">
<path opacity="0.3" d="M222.872 216.003H178.091L157.523 168.304H202.304L222.872 216.003Z" fill="white"/>
<path opacity="0.3" d="M150.695 168.304L171.263 216.003H126.482L105.913 168.304H150.695Z" fill="white"/>
<path opacity="0.3" d="M245.503 268.481H200.721L180.152 220.783H224.933L245.503 268.481Z" fill="white"/>
<path opacity="0.3" d="M193.892 268.481H149.111L128.542 220.783H173.324L193.892 268.481Z" fill="white"/>
</g>
<path d="M4.48679 153.909H231.243C233.72 153.909 235.729 151.799 235.729 149.199V4.70988C235.729 2.10963 233.72 0 231.243 0H2.34061C1.04692 0 1.52588e-05 1.10094 1.52588e-05 2.45699V149.199C1.52588e-05 151.799 2.00784 153.909 4.48679 153.909Z" fill="#5E5DBA"/>
<path d="M5.16908 147.994H230.68C231.185 147.994 231.594 147.564 231.594 147.034V6.87645C231.594 6.34659 231.185 5.91681 230.68 5.91681H5.16908C4.66432 5.91681 4.2549 6.34659 4.2549 6.87645V147.033C4.25304 147.564 4.66246 147.994 5.16908 147.994Z" fill="white"/>
<path opacity="0.5" d="M4.25299 22.8312V7.55742C4.25299 6.65077 4.83627 5.91486 5.55415 5.91486H230.293C231.011 5.91486 231.594 6.65077 231.594 7.55742V103.625L4.25299 22.8312Z" fill="#F2F2F2"/>
<path d="M205.412 86.2496L205.376 89.3934L205.035 97.2086L219.689 95.1835L221.286 92.9048L221.416 86.9658L221.896 81.4039H212.153L205.412 86.2496Z" fill="#FFC0BB"/>
<path d="M191.902 276.825C191.902 276.825 191.171 280.286 191.902 284.707C192.635 289.128 211.64 394.281 211.64 394.281L201.608 395.818C201.608 395.818 168.875 298.163 167.049 291.625C165.222 285.09 163.212 275.861 169.425 268.75C175.638 261.638 191.902 276.825 191.902 276.825Z" fill="#FFC0BB"/>
<path d="M186.621 397.32L198.622 382.117L210.623 387.353L207.616 391.714L194.543 398.616C194.543 398.616 188.955 399.795 188.665 399.71C188.381 399.624 186.621 397.32 186.621 397.32Z" fill="#FFC0BB"/>
<path d="M186.621 397.32L184.019 400.746C182.808 402.311 184.291 404.574 186.114 403.937L211.299 395.149C212.187 394.839 212.67 393.831 212.374 392.896L210.626 387.353C195.624 398.819 189.293 399.133 186.621 397.32Z" fill="#CB5F5A"/>
<path d="M228.13 44.0489C228.13 44.0489 234.398 39.7325 241.529 44.0489C248.66 48.3621 248.66 62.915 245.852 66.3979C243.041 69.8808 245.997 74.5933 240.379 79.1411C234.76 83.6889 225.812 85.3559 220.703 80.0443C215.595 74.7328 219.342 62.8833 219.342 62.8833L228.13 44.0489Z" fill="#23120B"/>
<path d="M203.558 398.039L217.346 388.998L229.323 396.528L225.166 399.672L210.692 401.893C210.692 401.893 205.035 401.161 204.787 400.984C204.539 400.809 203.558 398.039 203.558 398.039Z" fill="#FFC0BB"/>
<path d="M236.822 266.855C236.822 266.855 234.848 316.962 234.667 325.614C234.485 334.266 230.28 398.47 228.453 404.048L218.219 403.278C218.219 403.278 211.239 278.967 213.431 266.855C215.625 254.742 236.822 266.855 236.822 266.855Z" fill="#FFC0BB"/>
<path d="M258.756 225.925C262.282 225.161 263.16 227.554 266.726 226.771L265.89 232.555C266.37 233.68 267.438 236.684 267.438 236.684C271.408 248.787 271.191 247.485 270.796 247.71C270.4 247.935 267.417 243.457 267.079 243.875C266.741 244.29 268.788 251.494 268.178 251.303C267.568 251.113 264.911 244.705 264.567 244.946C264.223 245.187 266.294 252.105 265.397 252.349C264.501 252.59 262.475 244.93 261.838 245.428C261.201 245.925 263.465 253.718 262.614 253.801C261.898 253.87 259.163 245.219 258.309 242.461C258.2 242.106 257.756 242.024 257.533 242.316C254.109 246.813 253.596 246.949 253.213 246.442C252.941 246.081 254.701 241.187 256.102 236.51L257.962 230.808L258.756 225.925Z" fill="#FFC0BB"/>
<path d="M203.558 398.039L200.065 400.429C198.447 401.513 199.178 404.153 201.098 404.153H227.632C228.568 404.153 229.326 403.354 229.326 402.372V396.531C211.655 402.445 205.551 400.644 203.558 398.039Z" fill="#CB5F5A"/>
<path d="M118.608 92.439C118.539 92.7876 118.131 92.9207 117.893 92.6704C116.033 90.7245 110.149 84.6397 109.572 85.0232C108.884 85.4795 114.016 91.0541 113.681 91.764C113.346 92.4771 108.47 86.9088 107.809 87.5205C107.148 88.1353 111.755 93.0539 111.565 93.4151C111.371 93.7764 106.478 89.5582 105.886 89.6755C105.291 89.7928 109.995 94.9617 109.88 95.4688C109.765 95.9758 105.391 93.5419 105.149 93.9127C104.908 94.2835 104.687 94.4863 113.041 102.935L116.465 106.114L120.592 107.122L123.505 102.726C123.505 102.726 121.132 87.2384 120.573 86.9722C120.036 86.7155 119.656 87.0673 118.608 92.439Z" fill="#FFC0BB"/>
<path d="M230.053 266.855L221.564 299.906C201.955 299.884 172.704 297.973 158.173 287.784C158.173 287.784 177.169 194.917 189.779 171.656L233.091 169.155C233.091 169.155 263.124 213.166 241.197 299.288C241.197 299.288 237.447 299.58 231.463 299.76L230.053 266.855Z" fill="#23120B"/>
<path d="M193.07 61.5206C193.967 64.0812 193.112 66.7687 191.165 67.523C189.218 68.2772 186.911 66.8131 186.018 64.2524C185.121 61.6917 185.975 59.0042 187.923 58.25C189.87 57.4957 192.176 58.9599 193.07 61.5206Z" fill="#F99893"/>
<path d="M222.056 79.9968C222.056 79.9968 221.67 83.1501 221.416 86.9658C218.14 89.7515 213.908 91.1776 209.494 90.5787C208.042 90.3822 206.665 89.9734 205.376 89.3934C205.478 86.9056 205.442 84.5984 205.077 83.4924C204.068 80.4563 222.056 79.9968 222.056 79.9968Z" fill="#F99893"/>
<path d="M190.896 96.0646L149.864 128.755L123.593 100.41C123.593 100.41 115.734 106.786 115.734 106.669C115.734 106.551 140.433 147.177 146.495 149.303C152.557 151.43 191.678 122.752 191.678 122.752L190.896 96.0646Z" fill="#DCAF0C"/>
<path d="M193.275 76.3205C192.714 75.2082 192.246 74.0356 191.881 72.8123C190.836 69.5227 190.371 66.0524 190.19 63.0322C190.151 62.3857 190.078 61.7392 189.991 61.099C189.646 58.5034 189.743 55.7684 190.413 52.9764C192.563 43.9918 200.213 37.4443 209.011 37.0767C220.863 36.5823 230.319 46.7521 229.921 58.8932C231.201 58.2055 232.614 58.0883 233.836 58.7158C236.179 59.9201 236.919 63.3935 235.488 66.4771C234.057 69.5575 230.995 71.0787 228.653 69.8744C228.327 69.7065 228.037 69.491 227.774 69.2438C226.437 79.5373 218.128 87.2193 208.485 86.7027C203.77 86.4492 199.561 84.2783 196.451 80.9127C196.243 80.7162 196.023 80.4848 195.796 80.2186C194.794 79.046 193.967 77.7245 193.275 76.3205Z" fill="#FFC0BB"/>
<path d="M211.323 61.7899C211.269 62.8833 212.069 63.815 213.111 63.8721C214.149 63.9291 215.037 63.0861 215.088 61.9928C215.142 60.8994 214.342 59.9677 213.301 59.9106C212.262 59.8536 211.378 60.6966 211.323 61.7899Z" fill="#333333"/>
<path d="M195.848 61.7899C195.793 62.8833 196.593 63.815 197.635 63.8721C198.673 63.9291 199.561 63.0861 199.615 61.9928C199.67 60.8994 198.867 59.9677 197.828 59.9106C196.786 59.8536 195.902 60.6966 195.848 61.7899Z" fill="#333333"/>
<path d="M205.566 58.0091C205.578 58.6492 205.584 59.2862 205.56 59.9232C205.545 60.5602 205.509 61.1941 205.448 61.8279C205.385 62.4586 205.303 63.0861 205.158 63.6945C205.016 64.2999 204.82 64.902 204.482 65.3805C204.437 65.4376 204.398 65.501 204.346 65.5485C204.298 65.6024 204.256 65.6499 204.192 65.7133C204.135 65.7735 204.078 65.8306 204.026 65.8971C203.972 65.9605 203.921 66.0271 203.875 66.0968C203.685 66.3757 203.546 66.7021 203.501 67.0475C203.401 67.7447 203.67 68.442 204.093 68.9332C204.512 69.4371 205.068 69.7825 205.647 70.0012C206.233 70.2167 206.846 70.3149 207.453 70.3086C207.151 70.2706 206.852 70.2167 206.559 70.1438C206.266 70.0677 205.983 69.9663 205.708 69.8396C205.161 69.5892 204.66 69.2311 204.292 68.7557C203.93 68.2867 203.712 67.6814 203.815 67.1014C203.857 66.813 203.972 66.5405 204.141 66.3028C204.18 66.2426 204.225 66.1855 204.274 66.1285C204.319 66.0714 204.37 66.0207 204.422 65.9668L204.591 65.7894C204.651 65.7291 204.696 65.6594 204.748 65.5929C204.944 65.3172 205.083 65.0161 205.198 64.7087C205.312 64.4013 205.4 64.0843 205.466 63.7674C205.599 63.1304 205.675 62.4871 205.708 61.8469C205.783 60.5666 205.726 59.2799 205.566 58.0091Z" fill="#F99893"/>
<path d="M185.447 138.779C185.302 138.617 179.007 131.556 180.23 118.312C180.894 111.124 184.42 104.561 187.548 100.02C190.314 96.0011 194.712 93.5894 199.428 93.4975C208.038 93.3295 221.781 93.133 221.781 93.133C221.781 93.133 239.512 91.0858 245.134 98.3654C250.755 105.642 269.781 156.136 270.862 180.244C271.943 204.352 266.321 232.783 266.321 232.783C266.321 232.783 260.051 233.236 257.24 232.783C254.429 232.326 257.889 186.158 254.861 178.653C251.833 171.149 238.214 135.213 237.347 131.8L233.972 150.616C233.35 154.086 233.637 157.664 234.805 160.972C237.667 169.085 243.195 184.678 245.423 190.458C245.423 190.458 202.858 197.662 181.884 186.744L182.075 185.898C185.562 170.458 186.676 154.561 185.447 138.779Z" fill="#FDB827"/>
<path d="M209.738 58.4844C210.596 58.0059 211.486 57.651 212.392 57.4133C213.301 57.1851 214.228 57.0995 215.139 57.1914C215.595 57.2326 216.048 57.3277 216.489 57.4608C216.712 57.521 216.927 57.6066 217.147 57.6858C217.256 57.727 217.361 57.7809 217.467 57.8253C217.576 57.8696 217.684 57.914 217.787 57.971C218.629 58.3925 219.423 58.9472 220.199 59.5651C219.623 58.7412 218.886 58.0281 218.038 57.483C217.612 57.2105 217.159 56.9791 216.679 56.8175C216.202 56.6495 215.707 56.5322 215.203 56.4847C214.197 56.3865 213.177 56.5291 212.241 56.884C211.77 57.0552 211.323 57.2833 210.901 57.5464C210.484 57.8157 210.082 58.1168 209.738 58.4844Z" fill="#07085B"/>
<path d="M202.142 58.4845C201.801 58.1169 201.397 57.8158 200.977 57.5496C200.554 57.2865 200.107 57.0584 199.636 56.8872C198.701 56.5323 197.68 56.3897 196.675 56.4879C196.171 56.5323 195.675 56.6495 195.198 56.8207C194.721 56.9855 194.266 57.2137 193.84 57.4862C192.989 58.0313 192.255 58.7412 191.678 59.5683C192.454 58.9503 193.248 58.3989 194.09 57.9743C194.193 57.9172 194.302 57.8728 194.41 57.8285C194.519 57.7841 194.622 57.7302 194.731 57.689C194.951 57.6098 195.165 57.5211 195.389 57.464C195.829 57.3341 196.282 57.2358 196.738 57.1946C197.65 57.1027 198.577 57.1883 199.486 57.4165C200.394 57.651 201.285 58.0059 202.142 58.4845Z" fill="#07085B"/>
<path d="M225.105 92.9049C225.105 92.9049 211.562 110.956 208.682 117.475C208.682 117.475 200.732 106.501 200.385 93.4215L225.105 92.9049Z" fill="#FFC0BB"/>
<path d="M208.682 117.476C208.316 123.738 208.087 130.01 207.954 136.281C207.872 139.416 207.851 142.553 207.812 145.691C207.8 148.828 207.797 151.966 207.821 155.103C207.833 156.672 207.851 158.241 207.884 159.809C207.918 161.378 207.933 162.947 207.978 164.516C208.084 167.653 208.162 170.787 208.34 173.922C208.657 180.187 209.11 186.456 209.974 192.667L209.823 190.319L209.654 187.974C209.563 186.408 209.503 184.843 209.424 183.28L209.364 182.108L209.322 180.932L209.24 178.584L209.152 176.235L209.095 173.887C208.923 167.625 208.835 161.359 208.79 155.091C208.724 148.825 208.718 142.556 208.709 136.288L208.682 117.476Z" fill="#E3F6FF"/>
<path d="M235.874 125.848C235.962 126.352 236.031 126.863 236.131 127.363C236.236 127.864 236.327 128.368 236.451 128.865C236.695 129.857 236.958 130.849 237.344 131.791C237.061 130.811 236.846 129.816 236.683 128.812C236.502 127.81 236.372 126.799 236.249 125.791C236.022 123.769 235.898 121.735 235.844 119.7L235.808 118.173L235.817 116.645C235.799 115.625 235.865 114.607 235.88 113.587C235.883 113.077 235.932 112.57 235.95 112.059L236.022 110.529C236.082 109.508 236.17 108.491 236.221 107.467C236.061 108.475 235.925 109.489 235.784 110.503C235.684 111.521 235.566 112.541 235.5 113.562L235.412 115.095C235.379 115.606 235.367 116.119 235.358 116.633L235.334 118.17L235.874 125.848Z" fill="#E3F6FF"/>
<path d="M191.135 42.1315C194.845 28.7196 211.785 28.2442 211.785 28.2442C237.984 30.1552 233.857 54.3297 232.994 58.3292C232.236 58.1453 231.192 58.1675 229.924 58.8901C229.389 59.1943 228.957 59.5144 228.607 59.8377C225.522 58.8489 224.586 53.4581 222.989 50.8626C220.821 47.3385 211.269 49.1576 207.646 46.6571C204.02 44.1566 203.652 40.2902 203.652 40.2902C189.677 42.6196 189.894 58.1549 189.894 58.1549C189.29 58.0122 188.544 58.082 188.544 58.082C188.544 58.082 187.82 54.1142 191.135 42.1315Z" fill="#23120B"/>
<path d="M200.427 72.6507C200.904 74.7106 203.187 76.292 205.949 76.3237C208.712 76.3554 211.027 74.8279 211.55 72.7774L200.427 72.6507Z" fill="white"/>
</svg>
