<svg width="14" height="23" viewBox="0 0 14 23" fill="none" xmlns="http://www.w3.org/2000/svg">
<path d="M3.79023 13.2555C4.45576 14.7105 5.32783 16.016 6.35837 17.1391L9.17747 15.8497C9.54122 15.6833 9.94609 15.7511 10.2289 15.9846C11.0821 16.672 12.0252 17.2193 13.0218 17.6431C13.2562 17.7229 13.4602 17.9045 13.5642 18.1318C13.689 18.4046 13.6839 18.6819 13.595 18.9204L12.3713 22.2073C12.2825 22.4458 12.1009 22.6499 11.8554 22.7622C11.6008 22.8786 11.3277 22.8826 11.0891 22.7938C7.18322 21.2264 3.85988 18.216 1.97146 14.0874C0.0830348 9.95875 -0.0210755 5.47584 1.34749 1.49595C1.43631 1.25739 1.6179 1.05337 1.87253 0.936903C2.11806 0.824596 2.39116 0.820641 2.62972 0.909459L5.91657 2.13317C6.15513 2.22199 6.36824 2.39943 6.49303 2.67224C6.59701 2.89959 6.60097 3.17269 6.51215 3.41125C6.1769 4.43331 5.97419 5.50471 5.93622 6.59973C5.92798 6.96638 5.71446 7.31696 5.35071 7.48334L2.53161 8.7728C2.70733 10.2869 3.12471 11.8004 3.79023 13.2555Z" fill="#7C7BF5"/>
</svg>
